<svg width="175" height="178" viewBox="0 0 175 178" fill="none" xmlns="http://www.w3.org/2000/svg">
<path d="M71.5002 51.3004C72.8979 52.1962 71.5262 58.0938 71.6636 60.5905C73.405 72.642 77.6003 84.4426 83.9683 95.2013C89.2673 104.067 97.1544 111.126 106.339 115.223C106.933 115.425 107.503 108.65 108.365 108.65C109.226 108.65 119.937 118.772 120.043 119.654C120.15 120.536 105.066 123.906 104.882 123.291C105.107 121.437 105.492 119.624 106.032 117.872C103.985 117.354 101.982 116.576 100.071 115.557C96.3243 113.677 93.0848 112.871 79.4361 94.5641C65.7875 76.2574 64.3573 52.7889 64.7715 50.8382C65.1858 48.8874 70.1174 50.3934 71.5002 51.3004ZM109.678 113.354C109.592 114.381 107.415 119.612 108.02 120.013C110.798 119.762 113.518 119.234 116.143 118.435C116.47 118.189 109.812 112.265 109.678 113.354Z" fill="white"/>
</svg>
