<svg width="132" height="132" viewBox="0 0 132 132" fill="none" xmlns="http://www.w3.org/2000/svg">
<g clip-path="url(#clip0)">
<path d="M72.0842 16.0061C69.1187 15.7917 65.311 15.7524 63.6266 16.1027C59.4962 16.7954 53.8763 21.8586 50.291 28.256C47.4024 33.3211 47.058 33.6064 44.7704 32.598C38.4164 29.9061 32.3143 33.3361 28.6032 41.7544C26.3846 46.787 26.0461 49.0421 26.3365 57.8037C26.6436 68.7584 29.0573 77.9096 32.9496 82.467C35.0385 84.9178 35.1221 85.7197 33.7192 91.877C31.663 100.26 32.1589 103.101 35.9351 106.187C40.0882 109.657 64.6002 120.244 69.2314 120.647C74.086 121.038 77.134 118.338 81.5851 109.481C83.906 104.712 86.7573 100.723 89.8752 97.6172C100.171 87.4022 116.13 56.4063 115.99 47.0553C115.785 36.3643 111.783 32.3048 92.4539 23.3467C79.7645 17.4248 76.6642 16.2766 72.0842 16.0061ZM100.056 32.3807C102.222 33.6637 105.53 36.3241 107.282 38.2988C109.931 41.215 110.637 42.8374 110.659 47.0003C110.623 51.7929 110.029 53.3888 103.935 66.2208C94.3685 85.9373 85.5588 97.2444 78.7591 98.2903C75.1158 98.8699 63.7645 95.6144 53.4247 91.0561C42.3528 86.1752 37.4755 81.6208 34.1095 73.1426C30.9885 65.1002 30.4304 51.7399 32.9176 44.8585C35.1628 38.5261 39.2764 35.6403 43.4855 37.4958C45.9561 38.585 45.9158 38.6765 43.3027 47.5788C40.1357 57.9855 39.5316 63.0743 41.3617 63.881C43.5578 64.8492 44.6686 62.8253 46.7543 54.1276C51.3075 35.3705 55.2016 27.0329 61.2417 23.2478C65.8424 20.2488 71.8432 20.2713 80.8587 23.3714C88.2379 25.9688 91.5321 27.421 100.056 32.3807ZM75.9798 109.305C72.5451 115.113 72.1604 115.49 68.5249 115.308C64.8894 115.126 42.2881 105.162 39.7014 102.601C37.5831 100.465 37.3833 98.1916 38.5954 92.7152L39.2565 89.7281L50.2989 94.9239C57.0809 98.1323 64.2369 100.74 68.7687 101.864C72.843 102.786 76.7855 103.759 77.5579 103.99C78.6048 104.342 78.2525 105.389 75.9798 109.305Z" fill="white"/>
</g>
<defs>
<clipPath id="clip0">
<rect width="100" height="100" fill="white" transform="translate(40.418 0.0792389) rotate(23.7899)"/>
</clipPath>
</defs>
</svg>

