<svg width="35" height="35" viewBox="0 0 35 35" fill="none" xmlns="http://www.w3.org/2000/svg">
<path d="M35 29.8782C35 32.707 32.7186 35 29.9044 35H5.09562C2.28136 35 0 32.707 0 29.8782V5.12176C0 2.29306 2.28136 0 5.09562 0H29.9044C32.7186 0 35 2.29306 35 5.12176V29.8782Z" fill="#FAAB62"/>
<path d="M34.826 29.7508C34.826 32.5504 32.5681 34.8199 29.7827 34.8199H5.22877C2.44345 34.8199 0.185547 32.5504 0.185547 29.7508V5.24853C0.185547 2.44892 2.44354 0.179443 5.22877 0.179443H29.7827C32.5681 0.179443 34.826 2.44901 34.826 5.24853V29.7508Z" fill="#F7931E"/>
<path d="M17.4741 5.23151C14.0053 5.23151 11.1934 8.05794 11.1934 11.5444C11.1934 15.031 14.0053 17.8576 17.4741 17.8576C20.9428 17.8576 23.7548 15.031 23.7548 11.5444C23.7548 8.05794 20.9428 5.23151 17.4741 5.23151ZM17.4741 14.1542C16.0402 14.1542 14.8778 12.9857 14.8778 11.5445C14.8778 10.1033 16.0402 8.93489 17.4741 8.93489C18.9079 8.93489 20.0704 10.1033 20.0704 11.5445C20.0704 12.9857 18.9079 14.1542 17.4741 14.1542Z" fill="white"/>
<path d="M19.6959 22.8816C22.2104 22.3667 23.7171 21.1698 23.7968 21.1056C24.5326 20.5125 24.6508 19.4322 24.0607 18.6926C23.4708 17.953 22.396 17.8342 21.6601 18.4272C21.6446 18.4399 20.0375 19.679 17.3933 19.6808C14.7492 19.679 13.1081 18.4399 13.0926 18.4272C12.3566 17.8342 11.2819 17.953 10.6919 18.6926C10.1019 19.4322 10.2201 20.5125 10.9558 21.1056C11.0366 21.1708 12.6056 22.3988 15.1905 22.9015L11.588 26.6858C10.9333 27.3682 10.953 28.4548 11.6319 29.1129C11.9499 29.4218 12.3749 29.5943 12.8172 29.5937C13.2646 29.5937 13.7116 29.418 14.0467 29.0686L17.3934 25.4852L21.0781 29.0918C21.7458 29.7618 22.8268 29.7607 23.4932 29.0899C24.1596 28.4191 24.1588 27.3323 23.4913 26.6625L19.6959 22.8816Z" fill="white"/>
<path d="M17.3951 19.679C17.3864 19.679 17.4036 19.6792 17.3951 19.6794C17.3866 19.6792 17.4038 19.679 17.3951 19.679Z" fill="white"/>
</svg>
