<?xml version="1.0" encoding="utf-8"?>
<!-- Generator: Adobe Illustrator 24.2.3, SVG Export Plug-In . SVG Version: 6.00 Build 0)  -->
<svg version="1.1"
	 id="svg8" xmlns:cc="http://creativecommons.org/ns#" xmlns:dc="http://purl.org/dc/elements/1.1/" xmlns:inkscape="http://www.inkscape.org/namespaces/inkscape" xmlns:rdf="http://www.w3.org/1999/02/22-rdf-syntax-ns#" xmlns:sodipodi="http://sodipodi.sourceforge.net/DTD/sodipodi-0.dtd" xmlns:svg="http://www.w3.org/2000/svg"
	 xmlns="http://www.w3.org/2000/svg" xmlns:xlink="http://www.w3.org/1999/xlink" x="0px" y="0px" viewBox="0 0 163.2 54.1"
	 style="enable-background:new 0 0 163.2 54.1;" xml:space="preserve">
<style type="text/css">
	.st0{fill:#E43225;}
	.st1{fill:#F7971D;}
	.st2{font-family:'MyriadPro-Regular';}
	.st3{font-size:20px;}
</style>
<sodipodi:namedview  bordercolor="#666666" borderopacity="1.0" fit-margin-bottom="0" fit-margin-left="0" fit-margin-right="0" fit-margin-top="0" id="base" inkscape:current-layer="layer1" inkscape:cx="111.65714" inkscape:cy="28.157132" inkscape:document-units="mm" inkscape:pageopacity="0.0" inkscape:pageshadow="2" inkscape:window-height="705" inkscape:window-maximized="1" inkscape:window-width="1366" inkscape:window-x="-8" inkscape:window-y="-8" inkscape:zoom="0.35" pagecolor="#ffffff" showgrid="false">
	</sodipodi:namedview>
<g id="layer1" transform="translate(-76.290715,-142.89532)" inkscape:groupmode="layer" inkscape:label="Camada 1">
	<g id="g43" transform="matrix(0.26458333,0,0,0.26458333,38.931549,83.337617)">
		<g id="g32">
			<path id="path12" inkscape:connector-curvature="0" class="st0" d="M295.1,332v-95h56.1v11.9h-44.5v29.2h40V290h-40v29.8h47.6
				v11.9h-59.2L295.1,332z"/>
			<path id="path14" inkscape:connector-curvature="0" class="st0" d="M413.3,332l-19.3-25.2L374.8,332h-13.6l26.4-33.7l-27.8-34.9
				h15.3l19,26.1l19.3-26.1h15L402,298.2l24.9,33.7H413.3z"/>
			<path id="path16" inkscape:connector-curvature="0" class="st0" d="M445.6,321.8v46.8H434v-70c0-17.9,13.6-36.9,34.9-36.9
				c21.5,0,37.7,13.6,37.7,36c0,21.8-16.4,36.9-35.1,36.9C462.4,334.5,450.2,330.5,445.6,321.8L445.6,321.8z M494.4,297.7
				c0-15.3-9.9-24.4-27.5-23.5c-8.5,0.3-21.5,6.5-20.4,28.3c0.3,7.1,7.7,20.4,23.8,20.4C484.2,322.9,494.4,315,494.4,297.7z"/>
			<path id="path18" inkscape:connector-curvature="0" class="st0" d="M516.5,332v-68.6h11.6v7.4c5.7-6.5,14.5-8.8,23.8-8.8v12.5
				c-1.4-0.3-15.3-2-23.8,16.2v41.7h-11.6V332z"/>
			<path id="path20" inkscape:connector-curvature="0" class="st0" d="M555.1,297.7c0-19.8,14.2-36,33.7-36
				c24.4,0,33.4,16.2,33.4,36.9v5.7h-54.4c0.9,13,12.5,19.8,23.2,19.6c7.9-0.3,13.3-2.6,19-8.2l7.7,7.9
				c-7.1,6.8-16.2,11.3-27.2,11.3C569.8,334.5,555.1,319.2,555.1,297.7L555.1,297.7z M587.9,273.3c-11.1,0-19.6,9.6-20.1,20.1h42.2
				C610.1,283.2,602.7,273.3,587.9,273.3z"/>
			<path id="path22" inkscape:connector-curvature="0" class="st0" d="M628.2,322.3l8.5-7.7c-0.3,0,4.3,4.5,4.8,4.8
				c2,1.7,4,2.8,6.5,3.4c7.4,2,20.7,1.4,21.8-8.8c0.6-5.7-3.7-8.8-8.5-10.8c-6.2-2.3-13-3.1-19.3-6c-7.1-3.1-11.6-8.5-11.6-16.4
				c0-20.7,29.5-24.1,42.8-14.5c0.6,0.6,7.1,6.5,6.8,6.5l-8.5,6.8c-4.3-5.1-8.2-7.7-17.3-7.7c-4.5,0-10.8,2-11.9,6.8
				c-1.7,6.8,6,9.4,11.1,10.8c6.8,1.7,14.2,2.8,20.1,6.5c8.2,5.1,10.2,16.2,7.1,24.7c-3.4,9.4-13.6,13-22.7,13.3
				c-10.8,0.6-20.1-2.8-27.8-10.5C629.6,323.7,628.2,322.3,628.2,322.3z"/>
			<path id="path24" inkscape:connector-curvature="0" class="st0" d="M688,322.3l8.5-7.7c-0.3,0,4.3,4.5,4.8,4.8
				c2,1.7,4,2.8,6.5,3.4c7.4,2,20.7,1.4,21.8-8.8c0.6-5.7-3.7-8.8-8.5-10.8c-6.2-2.3-13-3.1-19.3-6c-7.1-3.1-11.6-8.5-11.6-16.4
				c0-20.7,29.5-24.1,42.8-14.5c0.6,0.6,7.1,6.5,6.8,6.5l-8.5,6.8c-4.3-5.1-8.2-7.7-17.3-7.7c-4.5,0-10.8,2-11.9,6.8
				c-1.7,6.8,6,9.4,11.1,10.8c6.8,1.7,14.2,2.8,20.1,6.5c8.2,5.1,10.2,16.2,7.1,24.7c-3.4,9.4-13.6,13-22.7,13.3
				c-10.8,0.6-20.1-2.8-27.8-10.5C689.4,323.7,688,322.3,688,322.3z"/>
			<g id="g30">
				<path id="path26" inkscape:connector-curvature="0" class="st0" d="M743.3,263.4V256h-2.6v-1.4h6.8v1.4H745v7.4H743.3z"/>
				<path id="path28" inkscape:connector-curvature="0" class="st0" d="M756,263.4v-6.8l-2.6,6.8h-0.6l-2.6-6.8v6.8h-1.4v-8.8h2.3
					l2.3,6l2.3-6h2.3v8.8H756z"/>
			</g>
		</g>
		<g id="g41">
			<path id="path34" inkscape:connector-curvature="0" class="st1" d="M216.3,332l-8.5-22.7h-45.9l-8.5,22.7h-12.2l36.9-95h13.3
				l36.6,95H216.3z M184.3,250.6L167,297.7h36L184.3,250.6z"/>
			<path id="path36" inkscape:connector-curvature="0" class="st1" d="M235.6,332v-95h11.9v95H235.6z"/>
			<path id="path38" inkscape:connector-curvature="0" class="st1" d="M265.4,332v-67.2h11.9V332H265.4z"/>
			<path id="XMLID_1_" inkscape:connector-curvature="0" class="st1" d="M288.6,243c0-0.3,0-0.3,0-0.6c0-0.3,0-0.3,0-0.6
				c-9.1-0.3-16.4-7.7-16.7-16.7c-0.3,0-0.6,0-0.9,0s-0.6,0-0.9,0c-0.3,9.1-7.7,16.4-16.7,16.7c0,0.3,0,0.3,0,0.6c0,0.3,0,0.3,0,0.6
				c9.1,0.3,16.4,7.7,16.7,16.7c0.3,0,0.6,0,0.9,0s0.6,0,0.9,0C272.2,250.6,279.5,243.2,288.6,243z"/>
		</g>
	</g>
</g>
<text transform="matrix(1 0 0 1 52.2167 54.1487)" class="st2 st3">Россия</text>
</svg>
