<svg xmlns="http://www.w3.org/2000/svg" viewBox="0 0 930 256" width="930" height="256">
    <path d="M350.574 254.808h8.249v-8.671h31.866v8.671h8.248v-15.932h-4.371v-39.762H362.63l-2.75 24.181c-1.621 13.889-4.23 15.792-9.306 16.356v15.157zm17.484-30.949l1.974-17.484h16.286v32.501h-24.464c3.173-2.891 5.358-7.685 6.204-15.017zm43.287 23.124c9.094 0 15.228-3.172 17.484-23.124l1.974-17.484h16.285v39.762h8.248v-47.023H423.4l-2.749 24.181c-1.622 13.889-4.23 16.356-9.306 16.356v7.332zm70.57-.846l10.433-17.554h8.178v17.554h8.249v-47.023h-20.656c-9.306 0-15.369 6.063-15.369 14.734 0 8.39 5.499 12.902 11.139 13.818l-11.492 18.471h9.518zm7.332-24.816c-4.653 0-8.037-2.961-8.037-7.473 0-4.512 3.384-7.473 8.037-7.473h11.279v14.946h-11.279zm65.987-22.207v47.023h20.656c9.87 0 15.369-6.768 15.369-14.734 0-7.967-5.569-14.735-15.369-14.735h-12.408v-10.293h23.97v-7.261h-32.218zm19.528 24.816c4.653 0 8.037 2.961 8.037 7.473 0 4.512-3.384 7.473-8.037 7.473h-11.28V223.93h11.28zm40.467 22.207l24.533-33.558v33.558h8.249v-47.023h-8.46l-24.04 32.641v-32.641h-8.249v47.023h7.967zm67.256.846c10.857 0 18.612-5.71 18.612-13.677 0-7.261-6.345-10.998-10.928-11.421 4.865-.846 10.223-4.512 10.223-10.786 0-7.896-7.755-12.69-17.907-12.69-7.825 0-14.382 3.172-17.977 7.402l4.23 5.147c3.384-3.384 8.178-5.217 12.972-5.217 5.78 0 10.433 2.256 10.433 6.627 0 4.3-4.582 6.204-10.574 6.204h-9.447v7.261h9.447c7.19 0 11.35 1.974 11.35 6.627 0 4.371-4.019 7.191-10.716 7.191-5.005 0-10.857-2.185-13.888-5.71l-4.442 5.428c3.173 4.23 10.223 7.614 18.612 7.614zm77.056-.846v-47.023h-8.249v19.246h-24.463v-19.246h-8.248v47.023h8.248v-20.515h24.463v20.515h8.249zm51.394 0v-7.261h-23.97v-13.043h23.476v-7.261h-23.476v-12.197h23.97v-7.261h-32.218v47.023h32.218zm40.184.846c9.518 0 15.299-4.935 18.894-10.575l-7.05-3.595c-2.256 3.948-6.768 6.838-11.844 6.838-9.306 0-16.215-7.12-16.215-16.99 0-9.87 6.909-16.991 16.215-16.991 5.076 0 9.588 2.961 11.844 6.839l7.05-3.596c-3.525-5.64-9.376-10.574-18.894-10.574-13.888 0-24.674 9.869-24.674 24.322 0 14.452 10.786 24.322 24.674 24.322zm76.985-.846l-18.47-47.023h-10.293l-18.471 47.023h9.376l3.455-9.024h21.573l3.454 9.024h9.376zm-15.157-16.285h-16.92l8.46-22.419 8.46 22.419z"/>
    <path d="M371.367 157.842h-23.263V66.547h23.794l29.395 51.29 29.395-51.29h23.793v91.295h-23.175v-48.91l-23.503 41.962h-13.02l-23.416-41.805v48.753zm192.486 0h-25.962l-5.265-12.685h-39.294l-5.265 12.685h-25.963l37.894-91.295h25.962l37.893 91.295zm-63.12-34.295h24.615L513.04 93.894l-12.307 29.653zm69.986-57h23.263v91.295h-23.263zm40.385 0h23.263v69.428h40.581v21.867h-63.844V66.547zm136.659 1h41.384c19.837 0 35.941 16.104 35.941 35.941 0 11.711-5.613 22.122-14.294 28.685l14.294 26.669h-24.947l-10.408-19.418c-.195.003-.39.005-.586.005h-21.785v19.413h-22.258V67.547h2.659zm41.283 23.882h-21.684v24.118h21.684c6.655 0 12.058-5.404 12.058-12.059 0-6.655-5.403-12.059-12.058-12.059zm139.058-23.875v49.452c0 24.56-19.939 44.5-44.5 44.5-24.56 0-44.5-19.94-44.5-44.5V67.554h24v50.275c0 11.314 9.186 20.5 20.5 20.5 11.315 0 20.5-9.186 20.5-20.5V67.554h24z"/>
    <circle cx="709.104" cy="147.506" r="14"/>
    <path d="M141.164 232.255c0-9.383-7.617-17-17-17H17c-9.383 0-17 7.617-17 17 0 9.382 7.617 17 17 17h107.164c9.383 0 17-7.618 17-17z" fill="#00b8ff"/>
    <path d="M17 249.255c-9.383 0-17-7.618-17-17V80.547c0-9.383 7.617-17 17-17s17 7.617 17 17v151.708c0 9.382-7.617 17-17 17z" fill="#76d6ff"/>
    <path d="M2.371 89.045c-4.73-8.192-1.919-18.682 6.273-23.412L118.347 2.296c8.191-4.729 18.682-1.918 23.411 6.273 4.73 8.192 1.919 18.683-6.273 23.412L25.782 95.318c-8.192 4.73-18.682 1.919-23.411-6.273z" fill="#76d6ff"/>
    <path d="M34 215.255v17c0 9.382-7.617 17-17 17a16.936 16.936 0 0 1-11.333-4.333l-.019-.017-.012-.011A16.96 16.96 0 0 1 0 232.255c0-9.383 7.617-17 17-17h17z" fill="#0686e7"/>
    <path d="M127.06 249.255c-9.383 0-17-7.618-17-17V17.001c0-9.383 7.617-17 17-17s17 7.617 17 17v215.254c0 9.382-7.617 17-17 17z" fill="#0087fc"/>
    <path d="M127.056.001c5.868.055 11.558 3.123 14.702 8.568 4.73 8.192 1.919 18.683-6.273 23.412L110.06 46.66V17.001c0-9.382 7.615-16.998 16.996-17zm.004 215.254c9.383 0 17 7.617 17 17 0 9.382-7.617 17-17 17s-17-7.618-17-17v-17h17z" fill="#065ac9"/>
    <path d="M188 249.255c-9.383 0-17-7.618-17-17V42.258c0-9.383 7.617-17 17-17s17 7.617 17 17v189.997c0 9.382-7.617 17-17 17z" fill="#9e3aff"/>
    <path d="M248.94 249.255c-9.383 0-17-7.618-17-17V78.451c0-9.383 7.617-17 17-17s17 7.617 17 17v153.804c0 9.382-7.617 17-17 17z" fill="#ff227e"/>
</svg>