<svg width="132" height="132" viewBox="0 0 132 132" fill="none" xmlns="http://www.w3.org/2000/svg">
<g clip-path="url(#clip0)">
<path d="M72.0837 15.9269C69.1182 15.7124 65.3105 15.6731 63.6261 16.0234C59.4957 16.7161 53.8758 21.7794 50.2905 28.1767C47.4019 33.2419 47.0575 33.5272 44.7699 32.5187C38.4159 29.8269 32.3138 33.2568 28.6027 41.6751C26.3841 46.7078 26.0456 48.9629 26.336 57.7245C26.6431 68.6792 29.0568 77.8304 32.9491 82.3877C35.038 84.8386 35.1216 85.6405 33.7187 91.7977C31.6625 100.181 32.1584 103.022 35.9346 106.108C40.0877 109.578 64.5997 120.165 69.2309 120.567C74.0855 120.959 77.1335 118.259 81.5846 109.402C83.9055 104.633 86.7568 100.644 89.8747 97.538C100.17 87.323 116.129 56.327 115.99 46.9761C115.785 36.285 111.782 32.2255 92.4534 23.2674C79.764 17.3455 76.6637 16.1974 72.0837 15.9269ZM100.055 32.3015C102.222 33.5844 105.53 36.2449 107.282 38.2195C109.931 41.1358 110.636 42.7582 110.659 46.9211C110.622 51.7136 110.028 53.3095 103.934 66.1416C94.368 85.858 85.5584 97.1651 78.7587 98.2111C75.1153 98.7907 63.764 95.5351 53.4242 90.9769C42.3523 86.0959 37.4751 81.5415 34.109 73.0633C30.988 65.021 30.4299 51.6607 32.9171 44.7793C35.1623 38.4469 39.2759 35.561 43.4851 37.4166C45.9556 38.5057 45.9153 38.5972 43.3022 47.4996C40.1352 57.9063 39.5311 62.995 41.3612 63.8018C43.5573 64.7699 44.6681 62.746 46.7538 54.0483C51.307 35.2913 55.2011 26.9537 61.2412 23.1685C65.8419 20.1695 71.8427 20.1921 80.8582 23.2922C88.2375 25.8896 91.5316 27.3418 100.055 32.3015ZM75.9793 109.226C72.5446 115.034 72.1599 115.411 68.5244 115.229C64.8889 115.047 42.2876 105.083 39.7009 102.522C37.5826 100.386 37.3828 98.1123 38.5949 92.6359L39.256 89.6488L50.2984 94.8446C57.0804 98.053 64.2364 100.661 68.7682 101.785C72.8425 102.707 76.785 103.68 77.5574 103.911C78.6043 104.263 78.252 105.31 75.9793 109.226Z" fill="white"/>
<path d="M77.8073 59.4997C76.8067 61.7694 74.1534 62.7991 71.8837 61.7985C69.614 60.7979 68.5843 58.1447 69.5849 55.8749C70.5855 53.6052 73.2388 52.5756 75.5085 53.5761C77.7782 54.5767 78.8041 57.2386 77.8073 59.4997ZM79.7185 44.0262C72.1813 40.7035 63.3453 44.1325 60.0226 51.6697C56.6999 59.2069 60.1327 68.0343 67.6699 71.357C70.4278 72.5728 73.454 72.9249 76.4195 72.3704L76.4736 72.3636L75.5761 69.4106L75.5343 69.4126C73.2838 69.7606 70.9982 69.469 68.9084 68.5477C62.9214 65.9084 60.1964 58.8865 62.8357 52.8996C65.475 46.9127 72.4969 44.1877 78.4838 46.8269C84.4707 49.4662 87.1958 56.4882 84.5565 62.4751C84.2129 63.2545 83.7836 63.9961 83.2687 64.7C82.3031 65.9622 81.1294 65.9562 80.4106 65.5678C79.6919 65.1793 79.0524 64.2632 79.6177 62.9575L80.5995 60.7306C82.2797 56.9192 80.546 52.4519 76.7346 50.7716C72.9232 49.0914 68.4558 50.8251 66.7756 54.6365C65.0954 58.4479 66.829 62.9153 70.6404 64.5955C72.4905 65.4111 74.5501 65.4495 76.4382 64.7168C76.6795 66.2348 77.5929 67.5275 78.957 68.2618C79.0732 68.3232 79.1979 68.3884 79.3178 68.4413C80.3113 68.8793 81.4435 68.9795 82.5044 68.7311C83.6023 68.4683 84.6068 67.8371 85.4166 66.9051C85.5435 66.7565 85.8238 66.3993 85.8238 66.3993L85.8313 66.3821C86.4097 65.6039 86.8852 64.7804 87.3572 63.7098C90.6847 56.1849 87.2557 47.3489 79.7185 44.0262Z" fill="white"/>
</g>
<defs>
<clipPath id="clip0">
<rect width="100" height="100" fill="white" transform="translate(40.418) rotate(23.7899)"/>
</clipPath>
</defs>
</svg>

