<svg width="100" height="100" viewBox="0 0 100 100" fill="none" xmlns="http://www.w3.org/2000/svg">
<path d="M45.3754 63.3524C46.1068 60.9822 48.6233 59.6526 50.9934 60.3841C53.3636 61.1155 54.6932 63.6319 53.9618 66.0021C53.2303 68.3723 50.7139 69.7019 48.3437 68.9704C45.9735 68.239 44.6467 65.7136 45.3754 63.3524ZM45.2662 78.9431C53.137 81.372 61.5173 76.9443 63.9462 69.0735C66.3751 61.2026 61.9446 52.8313 54.0737 50.4024C51.1937 49.5137 48.1471 49.5139 45.2657 50.4076L45.2127 50.4206L46.4456 53.25L46.4869 53.2432C48.682 52.6373 50.9861 52.6626 53.1684 53.3361C59.4204 55.2654 62.9391 61.9251 61.0097 68.1771C59.0804 74.429 52.4207 77.9477 46.1688 76.0184C39.9168 74.0891 36.3981 67.4294 38.3275 61.1774C38.5786 60.3635 38.9192 59.5772 39.3493 58.8185C40.1625 57.4531 41.329 57.3233 42.0879 57.6261C42.8467 57.9288 43.5879 58.7649 43.1773 60.1271L42.4596 62.4526C41.2314 66.4327 43.47 70.6697 47.4501 71.8979C51.4303 73.1262 55.6672 70.8876 56.8954 66.9074C58.1237 62.9273 55.8851 58.6904 51.9049 57.4621C49.973 56.8659 47.9228 57.0659 46.132 58.012C45.7169 56.5321 44.6601 55.3537 43.2202 54.782C43.0978 54.7344 42.9664 54.6841 42.8411 54.6455C41.8036 54.3253 40.6674 54.3567 39.6424 54.7261C38.5823 55.114 37.6574 55.8572 36.9608 56.8765C36.852 57.0388 36.6149 57.4261 36.6149 57.4261L36.6094 57.444C36.1249 58.2839 35.7477 59.1569 35.4027 60.2749C32.9676 68.134 37.3954 76.5142 45.2662 78.9431Z" fill="#FC2C38"/>
<path d="M29.4 98.13C26.6 97.13 23.1 95.63 21.7 94.63C18.2 92.33 15.1 85.43 14.4 78.13C13.8 72.33 13.6 71.93 11.1 71.93C4.2 71.83 0 66.23 0 57.03C0 51.53 0.6 49.33 4.4 41.43C9.1 31.53 15 24.13 20.4 21.53C23.3 20.13 23.7 19.43 24.9 13.23C26.4 4.72998 28 2.32999 32.7 1.02999C37.9 -0.470015 64.6 -0.270015 69 1.22999C73.6 2.82999 75.3 6.52998 75.8 16.43C76 21.73 77 26.53 78.6 30.63C83.9 44.13 86 78.93 82.1 87.43C77.6 97.13 72.3 99.23 51 99.63C37 99.93 33.7 99.73 29.4 98.13ZM61.6 94.43C64.1 94.13 68.2 93.03 70.6 91.93C74.2 90.33 75.5 89.13 77.2 85.33C79.1 80.93 79.2 79.23 78.8 65.03C78 43.13 74.5 29.23 68.7 25.53C65.6 23.53 53.9 21.93 42.6 21.93C30.5 21.93 24.2 24.13 17.7 30.53C11.6 36.63 5.7 48.63 5.2 55.93C4.7 62.63 7.3 66.93 11.9 66.93C14.6 66.93 14.6 66.83 15.8 57.63C17.1 46.83 18.6 41.93 20.6 41.93C23 41.93 23.2 44.23 21.6 53.03C18.2 72.03 18.4 81.23 22.4 87.13C25.4 91.73 30.9 94.13 40.4 94.93C48.2 95.53 51.8 95.53 61.6 94.43ZM70.6 14.33C69.8 7.62998 69.6 7.12998 66.2 5.82999C62.8 4.52998 38.1 4.52998 34.7 5.82999C31.9 6.92999 30.8 8.92998 29.7 14.43L29.1 17.43L41.3 17.13C48.8 16.93 56.4 17.43 61 18.23C65.1 19.03 69.1 19.73 69.9 19.83C71 19.93 71.1 18.83 70.6 14.33Z" fill="#FC2C38"/>
</svg>




