<svg width="244" height="36" viewBox="0 0 244 36" fill="none" xmlns="http://www.w3.org/2000/svg">
<path d="M35.5436 17.7935C35.5436 23.8978 32.6863 26.7551 29.093 26.7551C27.0149 26.7551 25.1966 25.6728 24.1576 24.0277C22.5124 25.6728 20.3045 26.7118 17.7935 26.7118C12.8581 26.7118 8.87509 22.7289 8.87509 17.7935C8.87509 12.8581 12.8581 8.87509 17.7935 8.87509C22.7289 8.87509 26.7118 12.8581 26.7118 17.7935V20.6941C26.7118 22.1661 27.7509 23.2051 29.093 23.2051C30.6948 23.2051 31.9936 21.863 31.9936 17.7935C31.9936 9.95741 25.6295 3.59333 17.7935 3.59333C9.95741 3.59333 3.55004 9.95741 3.55004 17.7935C3.55004 25.6295 9.91412 31.9936 17.7502 31.9936C22.2959 31.9936 25.4131 29.7424 25.4131 29.7424L27.7509 32.4265C27.7509 32.4265 23.7679 35.5003 17.7502 35.5003C7.96593 35.5003 0 27.5344 0 17.7502C0 7.96593 7.96593 0 17.7502 0C27.5777 0.0432931 35.5436 8.00922 35.5436 17.7935ZM17.7935 23.2051C20.7807 23.2051 23.2051 20.7807 23.2051 17.7935C23.2051 14.8062 20.7807 12.3818 17.7935 12.3818C14.8062 12.3818 12.3818 14.8062 12.3818 17.7935C12.3818 20.7807 14.8062 23.2051 17.7935 23.2051Z" fill="white"/>
<path d="M53.3372 16.841V26.0624H50.0469V10.1306H53.3372V11.6025C54.4195 10.4336 56.0646 9.74094 57.8396 9.74094C59.8744 9.74094 61.6061 10.6068 62.7751 12.2086C64.0738 10.6501 66.1086 9.74094 68.3166 9.74094C72.3428 9.74094 75.027 12.7282 75.027 16.9709V26.1057H71.7367V17.0142C71.7367 14.5898 70.308 12.9446 68.1001 12.9446C65.8922 12.9446 64.1604 14.6331 64.1604 16.8843V26.1057H60.8702V17.0142C60.8702 14.5898 59.4415 12.9446 57.2335 12.9446C55.0689 12.9013 53.3372 14.5898 53.3372 16.841Z" fill="white"/>
<path d="M91.3053 11.8623V10.1306H94.5956V26.0625H91.3053V24.3307C89.9632 25.6728 88.1016 26.4954 85.937 26.4954C81.2613 26.4954 77.668 22.8588 77.668 18.1398C77.668 13.3776 81.2613 9.78424 85.937 9.78424C88.1449 9.69766 89.9632 10.5202 91.3053 11.8623ZM81.1314 18.0532C81.1314 21.0837 83.2961 23.2484 86.24 23.2484C89.2272 23.2484 91.3486 21.0405 91.3486 18.0532C91.3486 15.066 89.2272 12.8581 86.24 12.8581C83.2961 12.9013 81.1314 15.0227 81.1314 18.0532Z" fill="white"/>
<path d="M102.258 5.28177C102.258 6.45069 101.306 7.40314 100.137 7.40314C98.9677 7.40314 98.0586 6.45069 98.0586 5.28177C98.0586 4.11286 98.9677 3.2037 100.137 3.2037C101.306 3.2037 102.258 4.11286 102.258 5.28177ZM101.782 26.0625H98.4915V10.1306H101.782V26.0625Z" fill="white"/>
<path d="M109.142 26.0624H105.852V3.55002H109.142V26.0624Z" fill="white"/>
<path d="M115.246 26.4954C114.077 26.4954 113.038 25.5429 113.038 24.2441C113.038 22.9454 114.12 21.9929 115.246 21.9929C116.415 21.9929 117.454 22.9454 117.454 24.2441C117.454 25.5429 116.415 26.4954 115.246 26.4954Z" fill="white"/>
<path d="M124.511 17.7502V26.0191H121.221V10.0873H124.511V12.2519C125.68 10.7367 127.238 10.0873 129.49 10.0873H130.788V13.1611H129.49C126.546 13.1611 124.511 15.0227 124.511 17.7502Z" fill="white"/>
<path d="M144.383 19.1788V10.1306H147.673V26.0624H144.383V24.4606C143.214 25.7161 141.439 26.4521 139.491 26.4521C135.508 26.4521 132.867 23.4648 132.867 19.1355V10.0873H136.157V19.049C136.157 21.6465 137.716 23.2484 140.054 23.2484C142.478 23.2484 144.383 21.4301 144.383 19.1788Z" fill="white"/>
<path d="M171.917 11.7757V10.1306H175.207V23.9411C175.207 29.0497 171.917 32.2101 166.722 32.2101C164.167 32.2101 161.613 31.4308 159.881 30.2186L161.397 27.4478C162.782 28.4003 164.817 29.0064 166.722 29.0064C169.969 29.0064 171.874 27.2747 171.874 24.2874V23.9844C170.532 25.3265 168.67 26.0624 166.505 26.0624C161.83 26.0624 158.236 22.5557 158.236 17.9233C158.236 13.291 161.83 9.78424 166.505 9.78424C168.713 9.69766 170.575 10.4336 171.917 11.7757ZM161.7 17.8368C161.7 20.7807 163.864 22.8155 166.808 22.8155C169.796 22.8155 171.917 20.7374 171.917 17.8368C171.917 14.9361 169.796 12.8581 166.808 12.8581C163.864 12.9013 161.7 14.9361 161.7 17.8368Z" fill="white"/>
<path d="M182.221 17.7502V26.0191H178.931V10.0873H182.221V12.2519C183.39 10.7367 184.948 10.0873 187.2 10.0873H188.498V13.1611H187.2C184.256 13.1611 182.221 15.0227 182.221 17.7502Z" fill="white"/>
<path d="M197.373 26.4521C192.611 26.4521 188.845 22.7722 188.845 18.0965C188.845 13.4209 192.611 9.74094 197.373 9.74094C202.136 9.74094 205.902 13.4209 205.902 18.0965C205.902 22.7722 202.136 26.4521 197.373 26.4521ZM197.373 23.2484C200.317 23.2484 202.482 21.0404 202.482 18.0532C202.482 15.066 200.317 12.858 197.373 12.858C194.43 12.858 192.265 15.066 192.265 18.0532C192.265 21.0404 194.43 23.2484 197.373 23.2484Z" fill="white"/>
<path d="M220.102 19.1788V10.1306H223.392V26.0624H220.102V24.4606C218.933 25.7161 217.158 26.4521 215.21 26.4521C211.227 26.4521 208.586 23.4648 208.586 19.1355V10.0873H211.876V19.049C211.876 21.6465 213.435 23.2484 215.773 23.2484C218.197 23.2484 220.102 21.4301 220.102 19.1788Z" fill="white"/>
<path d="M244 18.0532C244 22.8155 240.407 26.4088 235.731 26.4088C233.523 26.4088 231.705 25.5862 230.363 24.2441V31.604H227.072V10.044H230.363V11.7757C231.705 10.4336 233.566 9.61105 235.731 9.61105C240.407 9.69764 244 13.3343 244 18.0532ZM230.363 18.0532C230.363 21.0404 232.484 23.2484 235.471 23.2484C238.415 23.2484 240.58 21.0837 240.58 18.0532C240.58 15.0227 238.415 12.858 235.471 12.858C232.484 12.9013 230.363 15.066 230.363 18.0532Z" fill="white"/>
</svg>
