<svg width="138" height="37" viewBox="0 0 138 37" fill="none" xmlns="http://www.w3.org/2000/svg">
<mask id="mask0" mask-type="alpha" maskUnits="userSpaceOnUse" x="0" y="4" width="18" height="15">
<path d="M0 4H17.0057V18.8075H0V4Z" fill="white"/>
</mask>
<g mask="url(#mask0)">
<path fill-rule="evenodd" clip-rule="evenodd" d="M17.0057 11.4036C17.0057 15.4927 13.1986 18.807 8.50289 18.807C3.80667 18.807 0 15.4927 0 11.4036C0 7.31447 3.80667 3.99957 8.50289 3.99957C13.1986 3.99957 17.0057 7.31447 17.0057 11.4036Z" fill="#FC2B4A"/>
</g>
<mask id="mask1" mask-type="alpha" maskUnits="userSpaceOnUse" x="17" y="4" width="18" height="15">
<path d="M17.0059 4H34.0119V18.8075H17.0059V4Z" fill="white"/>
</mask>
<g mask="url(#mask1)">
<path fill-rule="evenodd" clip-rule="evenodd" d="M34.0119 11.4038C34.0119 15.4928 30.2049 18.8072 25.5088 18.8072C20.8129 18.8072 17.0059 15.4928 17.0059 11.4038C17.0059 7.31465 20.8129 3.99976 25.5088 3.99976C30.2049 3.99976 34.0119 7.31465 34.0119 11.4038Z" fill="#FC2B4A"/>
</g>
<mask id="mask2" mask-type="alpha" maskUnits="userSpaceOnUse" x="0" y="18" width="18" height="16">
<path d="M0 18.8073H17.0057V33.6153H0V18.8073Z" fill="white"/>
</mask>
<g mask="url(#mask2)">
<path fill-rule="evenodd" clip-rule="evenodd" d="M17.0057 26.2112C17.0057 30.3002 13.1986 33.6153 8.50289 33.6153C3.80667 33.6153 0 30.3002 0 26.2112C0 22.122 3.80667 18.8071 8.50289 18.8071C13.1986 18.8071 17.0057 22.122 17.0057 26.2112Z" fill="#FC2B4A"/>
</g>
<mask id="mask3" mask-type="alpha" maskUnits="userSpaceOnUse" x="17" y="18" width="18" height="16">
<path d="M17.0059 18.8073H34.0119V33.6153H17.0059V18.8073Z" fill="white"/>
</mask>
<g mask="url(#mask3)">
<path fill-rule="evenodd" clip-rule="evenodd" d="M34.0119 26.2112C34.0119 30.3002 30.2049 33.6153 25.5088 33.6153C20.8129 33.6153 17.0059 30.3002 17.0059 26.2112C17.0059 22.122 20.8129 18.8071 25.5088 18.8071C30.2049 18.8071 34.0119 22.122 34.0119 26.2112Z" fill="#FC2B4A"/>
</g>
<path d="M52.41 15H50.415V9.015C50.415 7.913 49.9147 7.362 48.914 7.362C48.496 7.362 48.0907 7.48233 47.698 7.723C47.3053 7.96367 47.0013 8.24867 46.786 8.578V15H44.791V9.015C44.791 7.913 44.2843 7.362 43.271 7.362C42.8657 7.362 42.4667 7.48233 42.074 7.723C41.694 7.96367 41.39 8.255 41.162 8.597V15H39.167V5.823H41.162V7.077C41.39 6.735 41.7827 6.40567 42.34 6.089C42.91 5.75967 43.5117 5.595 44.145 5.595C45.475 5.595 46.311 6.15867 46.653 7.286C46.9443 6.83 47.375 6.43733 47.945 6.108C48.515 5.766 49.123 5.595 49.769 5.595C51.5297 5.595 52.41 6.51967 52.41 8.369V15ZM61.8341 15H59.8391V14.012C59.1298 14.8227 58.1418 15.228 56.8751 15.228C56.0391 15.228 55.2981 14.962 54.6521 14.43C54.0061 13.8853 53.6831 13.138 53.6831 12.188C53.6831 11.2127 53.9998 10.4717 54.6331 9.965C55.2791 9.45833 56.0265 9.205 56.8751 9.205C58.1798 9.205 59.1678 9.59767 59.8391 10.383V9.015C59.8391 8.483 59.6428 8.065 59.2501 7.761C58.8575 7.457 58.3381 7.305 57.6921 7.305C56.6661 7.305 55.7605 7.69133 54.9751 8.464L54.1581 7.077C55.1968 6.089 56.4825 5.595 58.0151 5.595C59.1425 5.595 60.0608 5.861 60.7701 6.393C61.4795 6.925 61.8341 7.76733 61.8341 8.92V15ZM57.6541 13.86C58.6548 13.86 59.3831 13.5433 59.8391 12.91V11.523C59.3831 10.8897 58.6548 10.573 57.6541 10.573C57.0841 10.573 56.6155 10.725 56.2481 11.029C55.8808 11.333 55.6971 11.732 55.6971 12.226C55.6971 12.72 55.8808 13.119 56.2481 13.423C56.6155 13.7143 57.0841 13.86 57.6541 13.86ZM64.6487 4.702C64.3193 4.702 64.028 4.58167 63.7747 4.341C63.534 4.10033 63.4137 3.809 63.4137 3.467C63.4137 3.125 63.534 2.83367 63.7747 2.593C64.028 2.35233 64.3193 2.232 64.6487 2.232C64.9907 2.232 65.282 2.35233 65.5227 2.593C65.7633 2.83367 65.8837 3.125 65.8837 3.467C65.8837 3.809 65.7633 4.10033 65.5227 4.341C65.282 4.58167 64.9907 4.702 64.6487 4.702ZM65.6557 15H63.6607V5.823H65.6557V15ZM69.4787 15H67.4837V2.327H69.4787V15ZM73.2637 14.829C72.9977 15.0823 72.6874 15.209 72.3327 15.209C71.978 15.209 71.6677 15.0823 71.4017 14.829C71.1357 14.563 71.0027 14.2463 71.0027 13.879C71.0027 13.5117 71.1357 13.2013 71.4017 12.948C71.6677 12.682 71.978 12.549 72.3327 12.549C72.6874 12.549 72.9977 12.682 73.2637 12.948C73.5297 13.2013 73.6627 13.5117 73.6627 13.879C73.6627 14.2463 73.5297 14.563 73.2637 14.829ZM77.1989 15H75.2039V5.823H77.1989V7.172C77.5536 6.716 77.9969 6.34233 78.5289 6.051C79.0609 5.75967 79.6119 5.614 80.1819 5.614V7.59C80.0046 7.552 79.7956 7.533 79.5549 7.533C79.1369 7.533 78.6872 7.65967 78.2059 7.913C77.7372 8.15367 77.4016 8.43233 77.1989 8.749V15ZM89.2198 15H87.2248V13.784C86.3635 14.7467 85.2805 15.228 83.9758 15.228C82.0125 15.228 81.0308 14.259 81.0308 12.321V5.823H83.0258V11.599C83.0258 12.2703 83.1842 12.7517 83.5008 13.043C83.8175 13.3217 84.2735 13.461 84.8688 13.461C85.3502 13.461 85.7998 13.347 86.2178 13.119C86.6358 12.891 86.9715 12.606 87.2248 12.264V5.823H89.2198V15ZM47.622 33H45.627V31.746C44.867 32.734 43.8853 33.228 42.682 33.228C41.4787 33.228 40.497 32.7973 39.737 31.936C38.977 31.0747 38.597 29.903 38.597 28.421C38.597 26.9517 38.977 25.78 39.737 24.906C40.497 24.032 41.4787 23.595 42.682 23.595C43.8853 23.595 44.867 24.0953 45.627 25.096V20.327H47.622V33ZM43.252 31.461C43.7207 31.461 44.1767 31.347 44.62 31.119C45.0633 30.891 45.399 30.5997 45.627 30.245V26.597C45.399 26.2423 45.0633 25.951 44.62 25.723C44.1767 25.4823 43.7207 25.362 43.252 25.362C42.4667 25.362 41.8397 25.647 41.371 26.217C40.9023 26.787 40.668 27.5217 40.668 28.421C40.668 29.3203 40.9023 30.055 41.371 30.625C41.8397 31.1823 42.4667 31.461 43.252 31.461ZM50.435 22.702C50.1057 22.702 49.8144 22.5817 49.561 22.341C49.3204 22.1003 49.2 21.809 49.2 21.467C49.2 21.125 49.3204 20.8337 49.561 20.593C49.8144 20.3523 50.1057 20.232 50.435 20.232C50.777 20.232 51.0684 20.3523 51.309 20.593C51.5497 20.8337 51.67 21.125 51.67 21.467C51.67 21.809 51.5497 22.1003 51.309 22.341C51.0684 22.5817 50.777 22.702 50.435 22.702ZM51.442 33H49.447V23.823H51.442V33ZM56.994 36.724C55.436 36.724 54.1567 36.268 53.156 35.356L54.087 33.912C54.771 34.6973 55.74 35.09 56.994 35.09C57.754 35.09 58.3937 34.8873 58.913 34.482C59.445 34.0893 59.711 33.4623 59.711 32.601V31.499C58.9257 32.5123 57.944 33.019 56.766 33.019C55.5627 33.019 54.581 32.601 53.821 31.765C53.0737 30.929 52.7 29.7763 52.7 28.307C52.7 26.8503 53.0737 25.704 53.821 24.868C54.581 24.0193 55.5627 23.595 56.766 23.595C57.9694 23.595 58.951 24.0953 59.711 25.096V23.823H61.706V32.525C61.706 33.3103 61.5667 33.988 61.288 34.558C61.022 35.1407 60.6547 35.5777 60.186 35.869C59.7174 36.173 59.217 36.3883 58.685 36.515C58.1657 36.6543 57.602 36.724 56.994 36.724ZM57.355 31.252C57.811 31.252 58.2607 31.1317 58.704 30.891C59.1474 30.6503 59.483 30.359 59.711 30.017V26.597C59.483 26.255 59.1474 25.9637 58.704 25.723C58.2607 25.4823 57.811 25.362 57.355 25.362C56.5697 25.362 55.9427 25.6343 55.474 26.179C55.0054 26.711 54.771 27.4203 54.771 28.307C54.771 29.1937 55.0054 29.9093 55.474 30.454C55.9427 30.986 56.5697 31.252 57.355 31.252ZM64.5195 22.702C64.1902 22.702 63.8989 22.5817 63.6455 22.341C63.4049 22.1003 63.2845 21.809 63.2845 21.467C63.2845 21.125 63.4049 20.8337 63.6455 20.593C63.8989 20.3523 64.1902 20.232 64.5195 20.232C64.8615 20.232 65.1529 20.3523 65.3935 20.593C65.6342 20.8337 65.7545 21.125 65.7545 21.467C65.7545 21.809 65.6342 22.1003 65.3935 22.341C65.1529 22.5817 64.8615 22.702 64.5195 22.702ZM65.5265 33H63.5315V23.823H65.5265V33ZM70.1095 33.228C69.3369 33.228 68.7479 33.0253 68.3425 32.62C67.9499 32.2147 67.7535 31.632 67.7535 30.872V25.571H66.2335V23.823H67.7535V21.315H69.7485V23.823H71.6105V25.571H69.7485V30.378C69.7485 30.7073 69.8245 30.9733 69.9765 31.176C70.1285 31.366 70.3439 31.461 70.6225 31.461C71.0279 31.461 71.3255 31.3533 71.5155 31.138L71.9905 32.639C71.5725 33.0317 70.9455 33.228 70.1095 33.228ZM80.2619 33H78.2669V32.012C77.5576 32.8227 76.5696 33.228 75.3029 33.228C74.4669 33.228 73.7259 32.962 73.0799 32.43C72.4339 31.8853 72.1109 31.138 72.1109 30.188C72.1109 29.2127 72.4276 28.4717 73.0609 27.965C73.7069 27.4583 74.4543 27.205 75.3029 27.205C76.6076 27.205 77.5956 27.5977 78.2669 28.383V27.015C78.2669 26.483 78.0706 26.065 77.6779 25.761C77.2853 25.457 76.7659 25.305 76.1199 25.305C75.0939 25.305 74.1883 25.6913 73.4029 26.464L72.5859 25.077C73.6246 24.089 74.9103 23.595 76.4429 23.595C77.5703 23.595 78.4886 23.861 79.1979 24.393C79.9073 24.925 80.2619 25.7673 80.2619 26.92V33ZM76.0819 31.86C77.0826 31.86 77.8109 31.5433 78.2669 30.91V29.523C77.8109 28.8897 77.0826 28.573 76.0819 28.573C75.5119 28.573 75.0433 28.725 74.6759 29.029C74.3086 29.333 74.1249 29.732 74.1249 30.226C74.1249 30.72 74.3086 31.119 74.6759 31.423C75.0433 31.7143 75.5119 31.86 76.0819 31.86ZM84.0834 33H82.0884V20.327H84.0834V33ZM92.7863 33.228C92.0137 33.228 91.4247 33.0253 91.0193 32.62C90.6267 32.2147 90.4303 31.632 90.4303 30.872V25.571H88.9103V23.823H90.4303V21.315H92.4253V23.823H94.2873V25.571H92.4253V30.378C92.4253 30.7073 92.5013 30.9733 92.6533 31.176C92.8053 31.366 93.0207 31.461 93.2993 31.461C93.7047 31.461 94.0023 31.3533 94.1923 31.138L94.6673 32.639C94.2493 33.0317 93.6223 33.228 92.7863 33.228ZM99.5757 33.228C98.1824 33.228 97.0297 32.7847 96.1177 31.898C95.2184 30.9987 94.7687 29.8333 94.7687 28.402C94.7687 27.0593 95.2057 25.9257 96.0797 25.001C96.9664 24.0637 98.0811 23.595 99.4237 23.595C100.779 23.595 101.868 24.0637 102.692 25.001C103.528 25.9383 103.946 27.1353 103.946 28.592V29.067H96.8587C96.9347 29.789 97.2324 30.3907 97.7517 30.872C98.2711 31.3533 98.9487 31.594 99.7847 31.594C100.253 31.594 100.722 31.5053 101.191 31.328C101.672 31.1507 102.071 30.9037 102.388 30.587L103.3 31.898C102.375 32.7847 101.134 33.228 99.5757 33.228ZM102.008 27.661C101.982 27.0277 101.748 26.464 101.305 25.97C100.874 25.476 100.247 25.229 99.4237 25.229C98.6384 25.229 98.0241 25.476 97.5807 25.97C97.1374 26.4513 96.8904 27.015 96.8397 27.661H102.008ZM109.335 33.228C107.942 33.228 106.802 32.7783 105.915 31.879C105.028 30.967 104.585 29.808 104.585 28.402C104.585 27.0087 105.028 25.8623 105.915 24.963C106.802 24.051 107.942 23.595 109.335 23.595C110.868 23.595 112.039 24.1397 112.85 25.229L111.539 26.445C111.032 25.723 110.329 25.362 109.43 25.362C108.594 25.362 107.923 25.647 107.416 26.217C106.909 26.7743 106.656 27.5027 106.656 28.402C106.656 29.3013 106.909 30.036 107.416 30.606C107.923 31.176 108.594 31.461 109.43 31.461C110.304 31.461 111.007 31.1 111.539 30.378L112.85 31.594C112.039 32.6833 110.868 33.228 109.335 33.228ZM122.047 33H120.052V27.224C120.052 26.5527 119.888 26.0777 119.558 25.799C119.242 25.5077 118.786 25.362 118.19 25.362C117.722 25.362 117.278 25.4823 116.86 25.723C116.442 25.9637 116.1 26.255 115.834 26.597V33H113.839V20.327H115.834V25.077C116.176 24.6717 116.632 24.3233 117.202 24.032C117.785 23.7407 118.412 23.595 119.083 23.595C121.059 23.595 122.047 24.564 122.047 26.502V33Z" fill="black"/>
</svg>
