<svg width="50" height="34" viewBox="0 0 50 34" fill="none" xmlns="http://www.w3.org/2000/svg">
<path d="M20.6696 18.6992C18.6566 21.8869 16.9082 21.1048 15.5026 17.9479C14.9082 18.6658 14.264 19.3218 13.5785 19.9136C12.0948 21.0173 10.5048 19.983 10.4072 17.8888C10.3724 17.1144 10.4072 16.3271 10.3768 15.5398C10.316 15.2619 10.2163 15.0021 10.0796 14.7654C9.85618 14.8992 9.53513 14.9661 9.42667 15.1822C9.17071 15.7482 8.94945 16.3374 8.76941 16.942C8.50693 17.6881 8.27483 18.4574 7.99717 19.1829C7.71301 19.929 7.01887 20.3252 6.34858 20.1271C5.68264 20.0499 5.17505 19.3836 5.18156 18.5886C5.13166 17.5852 5.22711 16.5689 5.18156 15.5604C5.12733 15.2285 5.03405 14.9043 4.9039 14.6033C4.67613 14.8271 4.34858 14.9918 4.23145 15.2774C3.78676 16.4223 3.3898 17.6598 2.94511 18.833C2.81062 19.2343 2.62407 19.6074 2.3898 19.9367C1.91258 20.5825 1.08394 20.6494 0.539475 20.0834C0.318217 19.8544 0.168542 19.5405 0.114312 19.1983C0.0730977 19.0311 0.0470674 18.8613 0.0405598 18.6889C0.0405598 16.3399 -0.0245161 13.9472 0.010191 11.5751C0.0275446 10.9448 0.20108 10.3325 0.504768 9.81533C0.821471 9.32908 1.26616 8.97918 1.76724 8.81709C2.52863 8.57525 2.90607 9.0049 2.94078 9.99028C2.97114 10.7467 2.94078 11.5108 2.94078 12.2724L3.27266 12.383C3.51561 12.1026 3.73687 11.799 3.93644 11.4722C4.35292 10.6618 4.71301 9.80504 5.1295 8.98947C5.43101 8.25107 6.14251 7.88831 6.80195 8.13273C7.45054 8.31025 7.88004 9.04607 7.7911 9.8282V12.3753L8.0731 12.4808C8.27266 12.2672 8.46138 12.0357 8.63275 11.7887C9.22711 10.9499 9.78025 10.0623 10.3941 9.24675C10.6501 8.89942 10.9711 8.6267 11.3291 8.44918C12.0471 8.03239 12.9104 8.38486 13.2618 9.23646C13.3963 9.56063 13.4397 9.92597 13.3876 10.281C13.2878 11.9842 13.1989 13.6848 13.1208 15.388C13.1186 15.6967 13.1317 16.0081 13.1599 16.3142C14.2293 15.9051 15.0124 14.8143 15.1837 13.497C15.2575 12.0923 15.4006 10.6952 15.6132 9.31107C15.726 8.47233 16.3095 7.83171 17.0232 7.76739C17.6631 7.61045 18.3225 7.91147 18.7065 8.5418C19.1403 9.28019 19.1577 10.2553 18.7455 11.0117C18.1512 12.1849 18.1902 13.4584 18.3247 14.7139C18.3898 15.2645 18.6501 15.7533 19.0384 16.0647C19.5785 16.376 20.0275 15.8125 20.2401 15.2491C20.6197 14.0965 20.9516 12.9207 21.2293 11.7269C21.4375 10.8985 21.5221 10.0237 21.7239 9.20301C22.0297 8.05811 22.713 7.55385 23.5351 7.78283C24.405 8.03753 24.9646 9.04092 24.8215 10.0906C24.7629 10.6772 24.5698 11.2046 24.4939 11.7758C24.2553 13.5022 24.0492 15.2336 23.815 17.0578C24.9343 16.641 25.8236 16.2833 26.7347 15.9952C27.162 15.8897 27.6002 15.8537 28.0362 15.8949C28.8583 15.8949 29.2445 16.3811 29.5199 17.4848C30.4245 20.9658 32.3855 23.0498 35.418 23.6544C39.7824 24.5292 43.9386 19.8853 43.5048 14.6573C43.4744 14.31 43.4353 13.9653 43.4158 13.6179C43.2401 12.6686 43.7477 11.7295 44.5481 11.5211C45.3486 11.3127 46.1403 11.9147 46.316 12.8641C46.3356 12.9747 46.3486 13.0854 46.3507 13.1986C46.9494 17.9531 45.687 21.9023 42.4809 24.8302C38.0644 28.8232 31.7542 27.812 28.3876 22.5738C28.1121 22.1442 27.8605 21.6914 27.6349 21.2205C26.956 19.8235 26.739 19.7412 25.5069 20.441C25.444 20.4847 25.3768 20.5233 25.3095 20.5593C24.0774 21.1048 23.6176 22.1313 23.5026 23.711C23.3399 26.2118 23.008 28.6945 22.5134 31.1361C21.8497 34.2518 20.2423 34.8049 18.0601 32.8959C15.3638 30.5649 14.8692 26.963 16.9321 23.904C17.8236 22.6819 18.8301 21.5859 19.9364 20.6417C20.5048 20.2506 20.7998 19.4685 20.6696 18.6992ZM20.4657 24.5343L20.1599 24.3748C19.7369 25.0463 19.3464 25.7461 18.9928 26.469C18.7022 27.1714 18.8366 28.0179 19.3247 28.5479C19.6414 28.9518 19.969 29.065 20.0579 28.3472C20.2184 27.0582 20.3139 25.8078 20.4657 24.5343Z" fill="#FF2D39"/>
<path d="M41.2856 5.68075C41.1598 4.44837 41.5915 3.22887 42.4179 2.46989C43.0318 1.81897 43.5806 1.06771 44.1901 0.40393C44.4179 0.223834 44.6695 0.0874752 44.932 0C45.0405 0.270144 45.1164 0.555725 45.1598 0.851597C45.1901 1.89101 45.1836 2.93042 45.1598 3.97498C45.1598 4.70308 45.4309 5.02468 46.0448 5.01954H48.7476C48.9732 5.06585 49.1923 5.15332 49.3962 5.27682C49.3376 5.56754 49.24 5.84283 49.1034 6.09239C48.3854 6.99545 47.6196 7.85219 46.8908 8.73981C46.3897 9.35985 45.6652 9.64801 44.9515 9.50907C43.9537 9.32898 42.9537 9.81781 42.3528 10.7826C41.5849 11.8272 40.6847 12.7302 39.8778 13.7465C39.65 14.0526 39.5264 14.4489 39.5264 14.8554C39.6544 16.8801 38.3724 18.6425 36.6674 18.7917C34.9602 18.9435 33.4743 17.423 33.3485 15.4008C33.3398 15.2747 33.3377 15.1461 33.342 15.02C33.4006 13.0287 34.8106 11.4695 36.4895 11.539C36.5741 11.5416 36.6609 11.5493 36.7455 11.5622C37.175 11.6471 37.6132 11.4593 37.8995 11.0682C38.726 10.0468 39.5568 9.02539 40.4483 8.08117C41.0969 7.4251 41.4938 6.72016 41.2856 5.68075Z" fill="#FF2D39"/>
<path d="M27.3548 10.1702C27.4394 9.8589 27.5457 9.55788 27.6715 9.26716C29.8146 4.89083 34.0424 2.57531 38.242 3.48094C39.2658 3.71506 39.845 4.53836 39.6975 5.55976C39.55 6.58116 38.7712 7.19091 37.717 6.96193C34.8298 6.33417 31.9122 7.86241 30.3591 10.8186C30.2311 11.099 30.0814 11.364 29.9144 11.611C29.5044 12.1847 28.8211 12.3622 28.2463 12.0406C27.6563 11.7448 27.3439 11.1762 27.3548 10.1702Z" fill="#FF2D39"/>
</svg>
