<svg width="132" height="29" viewBox="0 0 132 29" fill="none" xmlns="http://www.w3.org/2000/svg">
<path d="M61.3305 15.2154V5.99153H58.0234V3.86475H67.0458V5.99153H63.7566V15.2136H61.3305V15.2154Z" fill="#333333"/>
<path d="M74.9837 15.2154L72.7617 11.1827H70.9981V15.2154H68.5898V3.86475H73.8808C76.2371 3.86475 77.6802 5.41313 77.6802 7.52374C77.6802 9.53197 76.4251 10.6043 75.204 10.8935L77.7483 15.2154H74.9837ZM75.2219 7.52374C75.2219 6.57172 74.4931 5.99153 73.5263 5.99153H70.9999V9.05416H73.5263C74.4913 9.05416 75.2219 8.47576 75.2219 7.52374Z" fill="#333333"/>
<path d="M87.2954 15.2154L86.6007 13.2916H81.7502L81.0376 15.2136H78.291L82.667 3.86475H85.6857L90.0438 15.2136H87.2954V15.2154ZM84.1764 6.28073L82.4127 11.1648H85.94L84.1764 6.28073Z" fill="#333333"/>
<path d="M89.9756 9.54818C89.9756 6.05983 92.6041 3.67798 95.9953 3.67798C98.4877 3.67798 99.929 5.03955 100.726 6.45142L98.656 7.4717C98.1815 6.55201 97.1645 5.82093 95.9935 5.82093C93.9416 5.82093 92.4501 7.40344 92.4501 9.54818C92.4501 11.6929 93.9416 13.2754 95.9935 13.2754C97.1645 13.2754 98.1815 12.5605 98.656 11.6247L100.726 12.6288C99.9111 14.0406 98.4877 15.4202 95.9953 15.4202C92.6041 15.4184 89.9756 13.0365 89.9756 9.54818Z" fill="#333333"/>
<path d="M108.885 15.2154L105.46 10.6708L104.579 11.7252V15.2136H102.17V3.86475H104.579V8.93561L108.58 3.86475H111.547L107.053 9.19068L111.852 15.2136H108.885V15.2154Z" fill="#333333"/>
<path d="M112.954 15.2154V3.86475H120.958V5.99153H115.363V8.39134H120.84V10.5181H115.363V13.0868H120.958V15.2136H112.954V15.2154Z" fill="#333333"/>
<path d="M129.235 15.2154L127.013 11.1827H125.25V15.2154H122.841V3.86475H128.132C130.489 3.86475 131.932 5.41313 131.932 7.52374C131.932 9.53197 130.677 10.6043 129.455 10.8935L132 15.2154H129.235ZM129.473 7.52374C129.473 6.57172 128.745 5.99153 127.778 5.99153H125.251V9.05416H127.778C128.743 9.05416 129.473 8.47576 129.473 7.52374Z" fill="#333333"/>
<path d="M0.151234 14.0354C0.24434 15.1761 1.1754 15.7958 2.20315 15.4689C2.7403 15.2982 3.09303 14.9066 3.31505 14.4127C3.54603 13.9025 3.99187 12.7278 4.24075 12.1817C4.5326 11.5368 4.82445 10.7572 5.12167 10.2166C5.23627 10.01 5.49768 9.87169 5.68747 9.88785C5.92382 9.90761 6.02946 10.0854 6.02588 10.2291C6.01155 10.8345 5.96858 11.3698 5.92561 11.9751C5.83071 13.1517 5.95784 13.9492 6.10645 14.33C6.22104 14.6246 6.49678 14.9623 6.99275 15.1527C7.81638 15.4707 8.7743 15.1797 9.20939 14.3534C9.83249 13.1732 10.0169 12.1601 10.563 10.9387C10.7027 10.6297 10.9265 10.116 11.3884 10.0585C11.5227 10.0423 11.8826 10.1142 11.8898 10.4016C11.8934 10.6135 11.7913 12.7816 11.9847 13.748C12.1584 14.6031 12.948 15.5515 14.5075 15.4293C14.9641 15.3952 15.4368 15.1922 15.7949 14.8958V14.9282C16.332 14.718 16.948 14.1773 17.6677 13.0996C17.8987 13.8181 18.4914 14.4953 18.8029 14.8869C19.8504 16.2035 21.3956 16.2466 22.5898 15.1276C23.1664 14.5869 23.4349 14.1791 23.6409 13.6403C23.6015 14.1791 23.4922 14.5581 23.4922 15.1006C19.9112 17.443 18.042 19.7925 17.8539 22.2192C17.6839 24.3981 18.8566 26.5734 21.3114 28.0104C21.8897 28.3499 22.4699 28.569 23.0536 28.5493C23.4153 28.5385 23.7716 28.4523 24.1064 28.2852C26.1601 27.2721 26.5039 21.9318 27.0446 17.0855L27.0625 16.8358C27.5997 16.3903 28.3535 15.864 29.3078 15.4347C29.4027 15.3916 29.8235 15.2102 30.0258 15.1473C30.409 15.0521 30.7008 15.133 30.9354 15.388C31.6963 17.1088 32.9622 19.2464 35.6713 20.7948C39.2397 22.8371 43.7787 22.9413 47.5208 20.6385C52.9639 17.2885 54.6757 10.1196 51.3364 4.65892C50.8225 3.81647 49.7249 3.55062 48.8834 4.06256L41.9344 8.33408C41.6301 7.66407 40.101 4.46492 39.6533 3.47877C39.5047 3.15185 38.9729 1.81722 38.8351 1.54778C38.631 1.14901 38.425 0.775385 38.237 0.577796C37.7733 0.0946 37.3937 0.0191567 36.9944 0.00119406C36.545 -0.0185649 36.024 0.209561 35.4832 0.487983C35.1234 0.672998 34.4591 1.09333 33.981 1.46156C33.3042 1.98427 32.7312 2.56088 32.2084 3.14287C31.7196 3.68714 31.3418 4.29068 31.0142 4.94093C30.5844 5.79416 30.9264 6.8342 31.7751 7.2653C32.6256 7.69641 33.6623 7.35332 34.092 6.50189C34.3212 6.04564 34.597 5.60735 34.9103 5.19959C35.2075 4.8116 35.3705 4.63197 35.6892 4.31224C35.7608 4.24039 35.8986 4.1865 36.0437 4.22242C36.1511 4.23859 36.255 4.30326 36.314 4.41103L39.6104 11.5889C39.827 12.047 40.2281 12.3919 40.7133 12.5373C41.1985 12.6828 41.7214 12.6164 42.1529 12.3523C42.1529 12.3523 48.4948 8.48676 48.57 8.43647C48.6757 8.36641 48.8368 8.37719 48.9568 8.41312C49.0499 8.44186 49.1663 8.57298 49.1967 8.68794C49.6372 10.3495 49.5208 12.0919 48.9138 13.6564C48.9085 13.669 48.9049 13.6816 48.8995 13.6941C48.8977 13.7013 48.8941 13.7067 48.8923 13.7121C47.6641 16.6131 44.7957 18.6518 41.4617 18.6518C39.605 18.6518 37.861 18.0375 36.4161 16.8735C35.0123 15.7437 34.015 14.1594 33.6068 12.4134C33.4367 11.6859 32.8315 11.174 32.1332 11.0914C31.5889 11.0357 31.1771 11.1075 31.0876 11.1219C29.6534 11.3554 28.409 11.8099 27.3633 12.3398C27.3615 12.241 27.3597 12.1619 27.3579 12.1494C27.417 10.9225 27.4152 10.3818 27.5263 9.17473C27.5406 9.03103 27.5549 8.88194 27.5746 8.72926C27.9363 6.99047 28.409 5.99175 28.3463 5.22833C28.3159 4.86369 28.2818 4.66251 28.1314 4.31224C27.9775 3.9907 27.7393 3.80569 27.4904 3.64582C27.3991 3.57577 27.2989 3.51649 27.1896 3.4644C27.1861 3.4626 27.1825 3.45901 27.1789 3.45721V3.45901C27.1234 3.43207 27.0643 3.40692 27.0034 3.38536C26.3212 3.13748 25.6391 3.32968 25.1789 3.90089C24.7725 4.40924 24.631 5.01997 24.4878 5.63788C24.2586 6.62224 24.0133 8.15086 23.7196 9.11546C23.4922 9.8627 23.0392 10.8075 22.477 11.1883C21.9148 11.5674 21.2666 11.4075 21.0267 10.583C20.742 9.61123 20.819 8.47958 20.9605 7.49882C21.0625 6.79468 21.5621 6.72103 21.6856 5.60196C21.8396 4.21703 21.1288 3.38896 19.9005 3.27938C19.0751 3.20574 18.3875 3.54164 17.9542 4.38588C17.5173 5.23731 17.3741 6.16778 17.3204 7.10723C17.2774 7.84909 17.2864 8.69513 17.2846 9.42441C17.2577 9.4783 17.2309 9.53039 17.2004 9.58249C16.606 10.6513 15.4224 11.7632 15.1198 11.5692C14.9587 11.465 15.0106 11.1183 15.007 10.9459C14.9802 9.6723 15.17 7.34434 15.3347 5.65225C15.4332 4.64275 14.8459 3.83263 13.5442 3.83443C12.7027 3.83623 12.2103 4.35355 11.7394 4.86549C10.9444 5.74027 10.2891 6.74079 9.66776 7.47726C9.56212 7.6012 9.38844 7.83113 9.20402 7.76826C9.01781 7.70359 9.0017 7.43774 8.99811 7.27069C8.982 6.43542 9.01244 6.58811 9.00707 5.75105C9.00528 5.55166 8.96947 5.12056 8.93545 4.80801C8.83876 3.8955 7.89875 3.43027 7.08944 3.55601C6.57019 3.63504 6.16554 3.97993 5.89338 4.42001C5.45471 5.12774 5.26849 5.47083 4.87996 6.2073C4.59885 6.7354 4.51648 6.89168 4.34639 7.1683C4.20315 7.38745 4.02051 7.59581 3.81281 7.62994C3.54603 7.67126 3.52275 7.40721 3.52096 7.38385C3.51201 6.98149 3.48515 6.10671 3.48515 5.98097C3.48515 5.49418 3.56931 4.34277 2.62034 4.24039C0.35177 4.00148 0.0258986 6.545 0.00620308 7.77185C-0.015283 9.11186 0.0241081 10.0531 0.0473847 11.3931C0.0652897 12.4242 0.0670802 13.0116 0.151234 14.0354ZM22.819 23.4712C22.7599 23.6886 22.5361 23.7173 22.3159 23.5503C21.6767 23.0635 21.5245 22.442 21.5657 21.9264C21.5943 21.5582 21.8342 20.6475 23.2845 19.3901C23.2523 20.2882 23.0858 22.5228 22.819 23.4712Z" fill="#FC2C38"/>
</svg>
