<svg width="97" height="17" viewBox="0 0 97 17" fill="none" xmlns="http://www.w3.org/2000/svg">
<path d="M10.4004 0.309082C11.0192 0.309082 11.519 0.809082 11.519 1.42813C11.519 2.04718 11.0192 2.54717 10.4004 2.54717H7.11608V10.7138C7.11608 11.4519 6.52108 12.0472 5.7833 12.0472C5.04551 12.0472 4.45052 11.4519 4.45052 10.7138V2.52337H1.11858C0.499791 2.52337 0 2.02337 0 1.40432C0.0237996 0.809082 0.523591 0.309082 1.11858 0.309082H10.4004Z" fill="#7E28DF"/>
<path d="M24.1089 5.33345C24.1089 6.23821 23.3949 6.88107 22.443 6.88107H14.3749C14.7319 8.7144 16.2075 9.88107 18.2066 9.88107C19.4918 9.88107 20.5628 9.33345 21.2292 8.54773C21.5148 8.23821 21.8718 7.9525 22.2764 7.9525C22.9427 7.9525 23.4663 8.42869 23.4663 9.04774C23.4663 9.38107 23.3235 9.76202 23.0379 10.0477C22.1098 11.1668 20.3248 12.0715 18.1114 12.0715C14.5177 12.0715 11.6855 9.47631 11.6855 6.04773C11.6855 2.73821 14.3035 0.0239258 18.0638 0.0239258C21.4196 0.0239258 24.1089 2.69059 24.1089 5.33345ZM21.5624 4.92869C21.1578 3.2144 19.8964 2.2144 18.0638 2.2144C16.0409 2.2144 14.7557 3.33345 14.3749 4.92869H21.5624Z" fill="#7E28DF"/>
<path d="M34.5098 0.309454C35.1286 0.309454 35.6284 0.809454 35.6284 1.4285C35.6284 2.04755 35.1286 2.54755 34.5098 2.54755H31.2016V10.7142C31.2016 11.4523 30.6067 12.0475 29.8689 12.0475C29.1311 12.0475 28.5361 11.4523 28.5361 10.7142V2.52374H25.228C24.6092 2.52374 24.1094 2.02374 24.1094 1.40469C24.1094 0.785645 24.6092 0.285645 25.228 0.285645L34.5098 0.309454Z" fill="#7E28DF"/>
<path d="M38.2697 16.9524C37.4843 16.9524 36.9131 16.381 36.9131 15.5714V1.47619C36.9131 0.619048 37.3653 0.0952385 38.1983 0.0952385C38.8171 0.0952385 39.3882 0.476191 39.3882 1.09524V2.71429H39.4358C40.0784 1 41.9824 0 43.7674 0C46.7899 0 49.6221 2.47619 49.6221 6.04762C49.6221 9.59524 46.7899 12.0714 43.815 12.0714C41.9824 12.0714 40.2688 11.0238 39.65 9.5H39.6024V15.5952C39.6262 16.381 39.055 16.9524 38.2697 16.9524ZM46.9565 6.04762C46.9565 4.02381 45.3143 2.38095 43.2914 2.38095C41.2922 2.38095 39.6262 4.02381 39.6262 6.04762C39.6262 8.07143 41.2684 9.71429 43.2914 9.71429C45.3143 9.71429 46.9565 8.07143 46.9565 6.04762Z" fill="#7E28DF"/>
<path d="M53.1205 12.0474C52.1447 12.0474 51.6211 11.4997 51.6211 10.5235V1.47593C51.6211 0.571172 52.0971 0.0711724 52.9539 0.0711724C53.8107 0.0711724 54.2867 0.571172 54.2867 1.47593V8.57117L60.2603 0.999744C60.7363 0.333077 61.2599 0.0473633 62.0691 0.0473633C63.0449 0.0473633 63.5685 0.594982 63.5685 1.57117V10.6188C63.5685 11.5235 63.0925 12.0235 62.2357 12.0235C61.3789 12.0235 60.9029 11.5235 60.9029 10.6188V3.52355L54.9292 11.095C54.4532 11.7616 53.9297 12.0474 53.1205 12.0474Z" fill="#7E28DF"/>
<path d="M67.7572 12.0237C67.0194 12.0237 66.4482 11.4522 66.4482 10.6665V1.42843C66.4482 0.642717 66.9956 0.0712891 67.781 0.0712891C68.5426 0.0712891 69.1138 0.642717 69.1138 1.42843V5.14271L74.6829 0.595098C75.0875 0.285575 75.4207 0.0712891 75.8253 0.0712891C76.5155 0.0712891 77.039 0.595099 77.039 1.23796C77.039 1.54748 76.9438 1.88081 76.6344 2.14272L72.7313 5.40462L77.2294 9.95223C77.4198 10.1665 77.4912 10.4284 77.4912 10.7141C77.4912 11.4522 76.9438 12.0475 76.2061 12.0475C75.7539 12.0475 75.3493 11.8094 75.0637 11.4999L70.6846 7.02367L69.09 8.30938V10.6903C69.09 11.4522 68.5188 12.0237 67.7572 12.0237Z" fill="#7E28DF"/>
<path d="M83.7034 12.095C80.6095 12.095 77.7773 9.61879 77.7773 6.07117C77.7773 2.49974 80.6571 0.0473633 83.7034 0.0473633C85.655 0.0473633 87.3448 1.11879 87.9874 2.61879L88.035 0.952125C88.1064 0.452125 88.6062 0.0949825 89.2725 0.0949825C89.9865 0.0949825 90.5101 0.666411 90.5101 1.45213V10.714C90.5101 11.4521 90.0817 12.0712 89.2725 12.0712C88.5348 12.0712 88.1064 11.6664 88.035 11.214L87.9874 9.54736C87.3448 11.0474 85.5836 12.095 83.7034 12.095ZM87.797 6.04736C87.797 4.02355 86.1548 2.3807 84.1318 2.3807C82.1089 2.3807 80.4667 4.02355 80.4667 6.04736C80.4667 8.07117 82.1089 9.71403 84.1318 9.71403C86.1548 9.71403 87.797 8.07117 87.797 6.04736Z" fill="#7E28DF"/>
<path d="M96.4598 9.78567C96.7216 10.738 96.1504 11.7142 95.1985 11.9761C94.2465 12.238 93.2707 11.6666 93.0089 10.7142C92.7471 9.76186 93.3183 8.78566 94.2703 8.52376C95.1985 8.26185 96.198 8.80947 96.4598 9.78567Z" fill="#FF62BA"/>
<path fill-rule="evenodd" clip-rule="evenodd" d="M96.7216 13.0712C96.674 13.0712 96.6026 13.0474 96.555 13.0235C96.3408 12.9045 96.4598 12.9521 96.7216 13.0712Z" fill="#D92228"/>
<path fill-rule="evenodd" clip-rule="evenodd" d="M96.5783 13.095C96.6021 13.095 96.6021 13.095 96.5783 13.095C96.5307 13.0712 96.5069 13.0712 96.5783 13.095Z" fill="#D92228"/>
</svg>
