<svg width="81" height="13" viewBox="0 0 81 13" fill="none" xmlns="http://www.w3.org/2000/svg">
<path fill-rule="evenodd" clip-rule="evenodd" d="M9.96513 1.65576C9.96513 1.20348 10.0816 0.83102 10.314 0.537924C10.5469 0.244982 10.8879 0.0985107 11.337 0.0985107C11.7865 0.0985107 12.1314 0.244982 12.3721 0.537924C12.6129 0.83102 12.7332 1.20348 12.7332 1.65576V5.59869C12.7332 6.63655 12.6288 7.57436 12.4203 8.41151C12.2116 9.24882 11.8746 10.0147 11.4093 10.7097C10.9441 11.4045 10.2861 11.9446 9.43564 12.3296C8.58515 12.7146 7.57418 12.9071 6.40271 12.9071C4.14009 12.9071 2.5074 12.2417 1.5042 10.9106C0.501304 9.5793 0 7.82548 0 5.64894V1.65576C0 1.20348 0.124225 0.83102 0.372968 0.537924C0.622004 0.244982 0.97089 0.0985107 1.42021 0.0985107C1.88554 0.0985107 2.24647 0.244982 2.50329 0.537924C2.76011 0.83102 2.88844 1.20348 2.88844 1.65576V5.77457C2.88844 8.73801 4.0677 10.2197 6.42664 10.2197C8.78559 10.2197 9.96513 8.72131 9.96513 5.72417V1.65576Z" fill="#FF5D6A"/>
<path fill-rule="evenodd" clip-rule="evenodd" d="M62.6674 5.658C63.1874 5.38452 63.4476 4.94434 63.4476 4.33762C63.4476 3.2636 62.4425 2.72659 60.4327 2.72659C60.0674 2.72659 58.1596 2.75631 57.4567 2.81606V6.00871C57.8927 6.04839 59.7439 6.06831 60.264 6.06831C61.3463 6.06831 62.1475 5.93149 62.6674 5.658ZM54.6758 1.69976C54.6758 0.951469 55.0959 0.498726 55.9358 0.341223C56.8209 0.170544 59.0896 0.0852051 60.4547 0.0852051C64.34 0.0852051 66.2827 1.45048 66.2827 4.18088C66.2827 5.11287 66.0278 5.90054 65.5175 6.54372C65.0077 7.18691 64.3 7.68592 63.2783 7.93842L65.7337 10.4916C66.1745 11.0146 66.3643 11.9062 65.3999 12.3983C64.6095 12.8017 63.7386 12.5176 63.1021 11.7321L60.1923 8.33539C59.9975 8.36174 57.8178 8.34872 57.4125 8.29617V11.3581C57.4125 11.7125 57.2929 12.0013 57.0528 12.2244C56.8127 12.4475 56.5599 12.5592 56.1398 12.5592C55.7048 12.5592 55.2571 12.4475 55.0247 12.2244C54.7921 12.0013 54.6758 11.7125 54.6758 11.3581V1.69976Z" fill="#FF5D6A"/>
<path fill-rule="evenodd" clip-rule="evenodd" d="M77.9866 1.65576C77.9866 1.20348 78.1031 0.83102 78.3355 0.537924C78.5684 0.244982 78.9093 0.0985107 79.3585 0.0985107C79.808 0.0985107 80.1529 0.244982 80.3936 0.537924C80.6344 0.83102 80.7546 1.20348 80.7546 1.65576V5.59869C80.7546 6.63655 80.6504 7.57436 80.4419 8.41151C80.2331 9.24882 79.8961 10.0147 79.4308 10.7097C78.9656 11.4045 78.3076 11.9446 77.4571 12.3296C76.6066 12.7146 75.5957 12.9071 74.4242 12.9071C72.1616 12.9071 70.5289 12.2417 69.5257 10.9106C68.5228 9.5793 68.0215 7.82548 68.0215 5.64894V1.65576C68.0215 1.20348 68.1457 0.83102 68.3945 0.537924C68.6435 0.244982 68.9924 0.0985107 69.4417 0.0985107C69.907 0.0985107 70.268 0.244982 70.5248 0.537924C70.7816 0.83102 70.9099 1.20348 70.9099 1.65576V5.77457C70.9099 8.73801 72.0892 10.2197 74.4481 10.2197C76.8071 10.2197 77.9866 8.72131 77.9866 5.72417V1.65576Z" fill="#FF5D6A"/>
<path fill-rule="evenodd" clip-rule="evenodd" d="M21.0238 12.907C18.8858 12.907 17.2135 12.3545 16.0059 11.2495C14.7983 10.1446 14.1943 8.59574 14.1943 6.60336C14.1943 4.59398 14.8231 3.00762 16.0799 1.84382C17.3371 0.680014 19.0542 0.0982666 21.2317 0.0982666C22.9144 0.0982666 24.1912 0.332529 25.0621 0.801359C25.9131 1.25349 26.1607 1.81471 25.8043 2.48424C25.4679 3.08714 24.8148 3.34254 23.8448 3.09158C22.8353 2.84046 21.7079 2.63485 21.0351 2.63485C19.8868 2.63485 18.9864 2.98663 18.3328 3.68972C17.6795 4.39297 17.3531 5.36403 17.3531 6.60336C17.3531 7.77528 17.6944 8.69625 18.3776 9.36578C19.0604 10.0356 19.9562 10.3706 21.0647 10.3706C21.8566 10.3706 23.0925 10.1361 24.2009 9.66715C25.1512 9.28213 25.8243 9.36578 26.22 9.91827C26.6755 10.5546 26.4776 11.1656 25.6264 11.7519C24.4781 12.522 22.9441 12.907 21.0238 12.907Z" fill="#FF5D6A"/>
<path fill-rule="evenodd" clip-rule="evenodd" d="M44.4582 0.41444C44.739 0.138351 45.1203 0 45.6015 0C46.083 0 46.4683 0.138351 46.7571 0.41444C47.0458 0.690835 47.1903 1.06329 47.1903 1.53228C47.1903 2.01781 47.0458 2.39425 46.7571 2.66222C46.4683 2.93019 46.083 3.06425 45.6015 3.06425C45.1203 3.06425 44.739 2.93433 44.4582 2.67478C44.1775 2.41524 44.0371 2.03436 44.0371 1.53228C44.0371 1.06329 44.1775 0.690835 44.4582 0.41444Z" fill="#FF5D6A"/>
<path fill-rule="evenodd" clip-rule="evenodd" d="M41.5251 0.512828C41.2844 0.236433 40.9476 0.0983887 40.5141 0.0983887C40.0809 0.0983887 39.7479 0.236433 39.5153 0.512828C39.2826 0.788917 39.1661 1.13671 39.1661 1.55513V4.95814H31.0249V1.55513C31.0249 1.13671 30.9046 0.788917 30.6636 0.512828C30.4231 0.236433 30.0861 0.0983887 29.6527 0.0983887C29.2195 0.0983887 28.8865 0.236433 28.6539 0.512828C28.4211 0.788917 28.3047 1.13671 28.3047 1.55513V11.1992C28.3047 11.618 28.4211 11.9655 28.6539 12.2416C28.8865 12.5179 29.2195 12.656 29.6527 12.656C30.0861 12.656 30.4231 12.5179 30.6636 12.2416C30.9046 11.9655 31.0249 11.618 31.0249 11.1992V7.79624H39.1661V11.1992C39.1661 11.618 39.2826 11.9655 39.5153 12.2416C39.7479 12.5179 40.0809 12.656 40.5141 12.656C40.9476 12.656 41.2844 12.5179 41.5251 12.2416C41.766 11.9655 41.8863 11.618 41.8863 11.1992V1.55513C41.8863 1.13671 41.766 0.788917 41.5251 0.512828Z" fill="#FF5D6A"/>
<path fill-rule="evenodd" clip-rule="evenodd" d="M44.2539 5.97786C44.2539 5.55929 44.3703 5.21165 44.6031 4.93556C44.8357 4.65916 45.1686 4.52112 45.6019 4.52112C46.0353 4.52112 46.3722 4.65916 46.6128 4.93556C46.8537 5.21165 46.9739 5.55929 46.9739 5.97786V11.1993C46.9739 11.6181 46.8537 11.9656 46.6128 12.2416C46.3722 12.518 46.0353 12.6561 45.6019 12.6561C45.1686 12.6561 44.8357 12.518 44.6031 12.2416C44.3703 11.9656 44.2539 11.6181 44.2539 11.1993V5.97786Z" fill="#FF5D6A"/>
<path fill-rule="evenodd" clip-rule="evenodd" d="M49.5849 9.67974C49.8819 9.3367 50.2869 9.16479 50.8005 9.16479C51.314 9.16479 51.7233 9.3367 52.0281 9.67974C52.3329 10.0231 52.4855 10.4375 52.4855 10.9231C52.4855 11.4254 52.337 11.8396 52.04 12.1661C51.7434 12.4926 51.33 12.6559 50.8005 12.6559C50.2709 12.6559 49.8618 12.4926 49.5728 12.1661C49.284 11.8396 49.1396 11.4254 49.1396 10.9231C49.1396 10.4375 49.2881 10.0231 49.5849 9.67974Z" fill="#FF5D6A"/>
</svg>
