<svg width="83" height="22" viewBox="0 0 83 22" fill="none" xmlns="http://www.w3.org/2000/svg">
<path fill-rule="evenodd" clip-rule="evenodd" d="M59.1362 16.8497H57.0565V6.89422H59.1362V16.8497ZM58.1 2.45013C58.877 2.45013 59.5026 3.07905 59.5026 3.84617C59.483 4.60675 58.8606 5.21358 58.0992 5.21358C57.3378 5.21358 56.7154 4.60675 56.6958 3.84617C56.6958 3.07905 57.3215 2.45013 58.1 2.45013ZM45.5954 16.8497H43.5157V6.89422H45.5954V16.8497ZM44.5527 2.45013C45.3304 2.45013 45.9561 3.07905 45.9561 3.84617C45.9561 4.61902 45.3247 5.24139 44.5527 5.24139C43.7798 5.24302 43.1517 4.61902 43.1493 3.84617C43.1493 3.07905 43.7815 2.45013 44.5527 2.45013ZM51.7594 10.6906C50.046 10.2195 49.5218 9.87358 49.5586 9.42704C49.5979 9.0124 50.0967 8.57814 51.2793 8.58468C52.0178 8.58468 52.8528 8.74824 53.7827 9.4524L55.0144 7.89279C54.1295 7.20255 52.8782 6.66196 51.3546 6.64233C50.2677 6.63006 49.1047 6.9253 48.421 7.54113C47.833 8.07599 47.4282 8.8423 47.4478 9.62087C47.4731 10.5205 47.8207 11.1747 48.5731 11.7153C49.1292 12.1103 50.6152 12.6387 51.7905 12.9404C53.1121 13.2807 53.4973 13.6888 53.3967 14.2163C53.283 14.7887 52.4545 15.0783 51.6015 15.084C50.4075 15.093 49.2552 14.6481 48.3777 13.8392L47.0618 15.4422C47.8273 16.1905 49.5087 17.113 51.2466 17.113C52.34 17.113 53.4474 16.8873 54.1548 16.4228C54.9448 15.901 55.4126 15.16 55.4822 14.2727C55.5459 13.387 55.2867 12.4506 54.2808 11.7464C53.7892 11.3882 52.7514 10.9613 51.7594 10.6906ZM75.3955 16.8497H73.3468V6.89422H75.3955V7.8748C76.1602 6.994 77.2479 6.63579 78.1761 6.63579C81.059 6.63579 82.6079 8.46528 82.6079 11.0995V16.8439H80.5536V11.1429C80.5536 9.67239 79.5419 8.65992 78.1205 8.65992C76.5707 8.65992 75.402 9.81061 75.402 11.2246L75.3955 16.8497ZM35.5639 16.8505L31.4805 6.89422H33.6927L36.7645 14.4984L39.8371 6.89422H42.0493L37.9659 16.8505H35.5639ZM66.2423 6.63579C69.1489 6.63579 71.5067 8.98051 71.5067 11.8732C71.5067 14.7634 69.1489 17.1081 66.2423 17.1081C63.3341 17.1081 60.9755 14.7634 60.9755 11.8715C60.9755 8.98051 63.3407 6.63579 66.2423 6.63579ZM66.2423 8.673C68.0187 8.673 69.4597 10.1058 69.4597 11.8715C69.4597 13.6381 68.0187 15.0717 66.2423 15.0717C64.4652 15.0717 63.0242 13.6381 63.0242 11.8715C63.0242 10.1058 64.4652 8.673 66.2423 8.673Z" fill="black"/>
<path d="M11.0973 0.00081783C11.6706 0.00245349 12.2438 0.048252 12.8098 0.138213C15.2289 0.520958 17.4526 1.69618 19.1308 3.47987C20.0672 4.47517 20.8123 5.63485 21.3267 6.90085C21.7912 8.04827 22.0562 9.26683 22.1102 10.5042C22.2402 13.2636 21.3169 15.9698 19.5266 18.074C18.2516 19.5813 16.5963 20.7214 14.7333 21.3756C13.5646 21.7854 12.3363 21.9955 11.0981 21.9972C7.19129 22.0168 3.56422 19.9731 1.55726 16.6216C-0.195349 13.7003 -0.485679 10.1288 0.772962 6.96301C1.27756 5.6921 2.01525 4.52669 2.94839 3.5273C3.94042 2.4633 5.132 1.6054 6.45443 1.00021C7.85701 0.359028 9.37817 0.0188101 10.9198 0.00081783L11.0964 0L11.0973 0.00081783ZM11.0367 3.46596C10.6409 3.4676 10.2467 3.49868 9.85578 3.56083C8.75171 3.73503 7.7008 4.15212 6.77665 4.78104C6.31867 5.09181 5.89421 5.45411 5.51474 5.8573C4.87274 6.53774 4.36242 7.33267 4.01075 8.19957C3.6967 8.97569 3.51596 9.79924 3.47671 10.6351C3.40392 12.1096 3.76949 13.5727 4.52844 14.8395C5.90158 17.1254 8.3706 18.5263 11.0367 18.532C13.7217 18.5468 16.2152 17.1434 17.5949 14.8395C18.5681 13.217 18.8887 11.2861 18.4921 9.43613C18.2999 8.53569 17.9425 7.67779 17.4371 6.90821C16.8875 6.06748 16.1776 5.34452 15.3467 4.78104C14.0979 3.93049 12.6225 3.47251 11.1112 3.46596H11.0367Z" fill="#48D7FF"/>
<path d="M17.7152 2.68859C17.8084 2.69676 17.8313 2.69595 17.9237 2.7123C18.2345 2.7671 18.5248 2.90613 18.7628 3.11386C18.892 3.23653 19.018 3.3633 19.1407 3.49251C19.9348 4.33815 20.5915 5.30319 21.0863 6.35247C21.5721 7.38702 21.8927 8.49109 22.035 9.62542C22.1503 10.5447 22.1494 11.4794 22.0309 12.3987C21.8657 13.6925 21.4698 14.9454 20.8614 16.0985C19.9012 17.9182 18.452 19.4337 16.6773 20.4739C14.6033 21.6941 12.1883 22.2037 9.79776 21.9264C8.6896 21.7996 7.60679 21.5069 6.58532 21.0571C5.35858 20.5156 4.23978 19.7559 3.28456 18.8146L3.26248 18.7933C3.23794 18.7671 3.21341 18.7434 3.18969 18.7172C2.97869 18.4825 2.83639 18.193 2.77832 17.8822C2.67446 17.3237 2.85029 16.7487 3.24939 16.3431C3.89384 15.6929 4.93331 15.6553 5.62274 16.258C5.67753 16.3063 5.72824 16.3586 5.78058 16.4101C6.03083 16.6514 6.29826 16.8747 6.58041 17.0783C7.53155 17.7694 8.62908 18.2306 9.78795 18.4269C10.7424 18.5864 11.718 18.5651 12.6643 18.3648C13.918 18.0973 15.0826 17.5167 16.0509 16.6768C16.9808 15.8745 17.7005 14.8571 18.147 13.7138C18.4782 12.864 18.6508 11.9603 18.6549 11.0484C18.6688 9.36699 18.1126 7.72969 17.0764 6.40399C16.8704 6.13901 16.6471 5.88794 16.4075 5.6524L16.3347 5.57716C16.2742 5.50519 16.2578 5.48966 16.2046 5.41278C15.7041 4.69472 15.8154 3.7166 16.4647 3.13021C16.7264 2.8955 17.0535 2.74583 17.4028 2.70085C17.4944 2.68859 17.5181 2.6894 17.6105 2.68695L17.7152 2.68859Z" fill="#FF4F29"/>
<path d="M13.3843 7.00326C13.4383 7.00653 13.4522 7.00653 13.5062 7.01226C13.8742 7.05151 14.2202 7.20853 14.4925 7.45879C14.535 7.49886 14.5759 7.54139 14.6176 7.5831C15.1427 8.1245 15.5361 8.77877 15.7683 9.49601C16.3334 11.2543 15.8632 13.1811 14.5514 14.4823C13.7843 15.2429 12.7898 15.7328 11.7184 15.8767C10.1776 16.0828 8.62948 15.5537 7.53768 14.4472C7.35448 14.2541 7.21872 14.0211 7.14021 13.7659C6.98891 13.2711 7.06661 12.7338 7.35203 12.3012C7.71024 11.7614 8.33915 11.4662 8.9836 11.5349C9.35081 11.5749 9.69593 11.7311 9.96827 11.9806L10.055 12.0632L10.095 12.0983C10.2226 12.2079 10.3698 12.2963 10.5277 12.3568C10.8891 12.4942 11.2907 12.4868 11.6473 12.3363C12.0178 12.1769 12.3081 11.8726 12.4504 11.4948C12.6467 10.9624 12.5101 10.3629 12.102 9.96789L12.0595 9.92373L12.0186 9.87875C11.6563 9.46493 11.5115 8.9039 11.6276 8.36658C11.7446 7.82927 12.1093 7.37946 12.6107 7.15374C12.816 7.06132 13.0376 7.01062 13.2617 7.00326L13.323 7.00244L13.3843 7.00326Z" fill="#337AFF"/>
<path d="M3.24955 18.7783C2.5732 18.102 2.5732 17.0061 3.24873 16.3289C3.92589 15.6526 5.0226 15.6526 5.69977 16.3297C6.37611 17.0061 6.37611 18.1036 5.69895 18.78C5.02179 19.4555 3.92589 19.4547 3.24955 18.7783ZM16.3937 5.63497C15.7174 4.95862 15.7166 3.86273 16.3929 3.18557C17.0725 2.52967 18.1529 2.53948 18.821 3.20765C19.4884 3.87664 19.4982 4.95617 18.8423 5.63579C18.1651 6.31132 17.0701 6.31132 16.3937 5.63497Z" fill="#990064"/>
</svg>
