<svg width="31" height="31" viewBox="0 0 31 31" fill="none" xmlns="http://www.w3.org/2000/svg">
<rect width="31" height="31" fill="#FC2C38"/>
<path d="M28.546 5.87708H2.8418V23.5729H28.546V5.87708Z" fill="white"/>
<path fill-rule="evenodd" clip-rule="evenodd" d="M2.19583 2.19583C0 4.32708 0 7.87917 0 14.8542V16.1458C0 23.1208 0 26.6729 2.19583 28.8042C4.32708 31 7.87917 31 14.8542 31H16.1458C23.1208 31 26.6729 31 28.8042 28.8042C31 26.6729 31 23.1208 31 16.1458V14.8542C31 7.87917 31 4.32708 28.8042 2.19583C26.6729 0 23.1208 0 16.1458 0H14.8542C7.87917 0 4.32708 0 2.19583 2.19583ZM6.13542 9.6875H8.39583C8.97708 9.6875 9.17083 9.94583 9.42917 10.5917C10.5271 13.8208 12.4 16.5979 13.175 16.5979C13.4333 16.5979 13.5625 16.4688 13.5625 15.7583V12.4C13.4979 11.4313 13.175 11.0437 12.9167 10.7208C12.7875 10.5271 12.6583 10.3979 12.6583 10.2042C12.6583 9.94583 12.8521 9.6875 13.2396 9.6875H16.7917C17.2437 9.6875 17.4375 9.94583 17.4375 10.5271V14.9833C17.4375 15.4354 17.6313 15.6292 17.7604 15.6292C18.0187 15.6292 18.2771 15.4354 18.7937 14.9187C20.4083 13.1104 21.5708 10.2687 21.5708 10.2687C21.7 9.94583 21.9583 9.62292 22.5396 9.62292H24.8C25.5104 9.62292 25.6396 9.94583 25.5104 10.4625C25.2521 11.7542 22.475 15.6292 22.475 15.6292C22.2167 16.0167 22.1521 16.2104 22.475 16.6625C22.6042 16.8562 22.8625 17.05 23.1208 17.3729C23.4437 17.6312 23.7667 18.0187 24.025 18.2771C24.9937 19.375 25.7042 20.2792 25.9625 20.925C26.1562 21.5708 25.8333 21.8938 25.1875 21.8938H22.9271C22.3458 21.8938 22.0229 21.5708 21.3771 20.7958C21.1187 20.4729 20.7312 20.0854 20.2792 19.6333C18.9229 18.3417 18.3417 18.1479 18.0187 18.1479C17.5667 18.1479 17.4375 18.2771 17.4375 18.9229V20.925C17.4375 21.5063 17.2437 21.8292 15.8229 21.8292C13.4333 21.8292 10.7854 20.3438 8.9125 17.6958C6.13542 13.8854 5.36042 10.9146 5.36042 10.3333C5.36042 10.0104 5.48958 9.6875 6.13542 9.6875Z" fill="#FC2C38"/>
</svg>
