<svg width="95" height="37" viewBox="0 0 95 37" fill="none" xmlns="http://www.w3.org/2000/svg">
<path d="M8.32617 36.7686C3.86305 36.7686 0.232422 33.138 0.232422 28.6748V8.32483C0.232422 3.8617 3.86305 0.231079 8.32617 0.231079H28.7363C33.1994 0.231079 36.83 3.8617 36.83 8.32483V28.6748C36.83 33.138 33.1994 36.7686 28.7363 36.7686H8.32617Z" fill="white"/>
<path d="M28.7351 0.4625C33.0706 0.4625 36.5976 3.98953 36.5976 8.325V28.675C36.5976 33.0105 33.0706 36.5375 28.7351 36.5375H8.325C3.98953 36.5375 0.4625 33.0105 0.4625 28.675V8.325C0.4625 3.98953 3.98953 0.4625 8.325 0.4625H28.7351ZM28.7351 0H8.325C3.72682 0 0 3.72682 0 8.325V28.675C0 33.2732 3.72682 37 8.325 37H28.7351C33.3333 37 37.0601 33.2732 37.0601 28.675V8.325C37.0601 3.72682 33.3333 0 28.7351 0Z" fill="#F7F7F7"/>
<path d="M43.2383 12.6561V24.4619H50.4783C52.5022 24.4619 54.0488 23.0623 54.1311 21.0384C54.2134 19.4872 53.4891 18.5761 52.1238 18.0359C53.0285 17.7158 53.5224 16.838 53.5391 15.8936C53.5881 14.1398 52.2228 12.6552 50.5116 12.6552H43.2383V12.6561ZM47.7301 19.7397H48.8493C49.4413 19.7397 49.6717 20.1107 49.6717 20.4816C49.6717 20.8525 49.4247 21.2234 48.8493 21.2234H47.7301V19.7397ZM47.7301 15.8103H48.5691C49.3914 15.8103 49.3424 17.0415 48.5691 17.0415H47.7301V15.8103ZM54.7416 18.5252C54.7749 26.7559 67.1819 26.6717 67.2152 18.5252C67.1819 10.2779 54.774 10.2613 54.7416 18.5252ZM59.1844 18.5086C59.201 15.7595 62.7058 15.7595 62.7225 18.5086C62.7058 21.2244 59.201 21.241 59.1844 18.5086ZM68.0218 18.5252C68.0551 26.7559 80.4621 26.6717 80.4954 18.5252C80.4621 10.2779 68.0542 10.2613 68.0218 18.5252ZM72.4646 18.5086C72.4812 15.7595 75.9861 15.7595 76.0027 18.5086C75.9861 21.2244 72.4812 21.241 72.4646 18.5086ZM85.2675 19.0987L86.9954 21.8312H88.5753L90.3032 19.0987L89.9906 21.8312V24.4619H94.4167V12.6561H90.0886L87.7844 16.0296L85.4803 12.6561H81.1365V24.4619H85.5792V21.8312L85.2675 19.0987Z" fill="#FF2A59"/>
<path d="M18.5308 33.9167C10.0023 33.9167 3.08887 27.0144 3.08887 18.4997C3.08887 9.98511 10.0023 3.08276 18.5308 3.08276C27.0593 3.08276 33.9718 9.98511 33.9718 18.4997C33.9718 27.0144 27.0584 33.9167 18.5308 33.9167ZM18.5308 31.4497C25.6949 31.4497 31.5021 25.6518 31.5021 18.4997C31.5021 11.3476 25.6949 5.54974 18.5308 5.54974C11.3667 5.54974 5.55955 11.3476 5.55955 18.4997C5.55955 25.6518 11.3667 31.4497 18.5308 31.4497ZM13.2805 12.3328H21.1023C22.9431 12.3328 24.4286 13.9663 24.375 15.8117C24.3574 16.8051 23.8098 17.6543 22.8367 17.9919C24.3056 18.5599 25.0974 19.3979 25.0095 21.0296C24.9207 23.158 23.2798 24.6667 21.1023 24.6667H13.2805V12.3328ZM18.035 15.8117V17.0771H19.3041C19.6538 17.0771 19.9368 16.794 19.9368 16.4444C19.9368 16.0947 19.6538 15.8117 19.3041 15.8117H18.035ZM18.035 19.607V21.1878H19.4632C19.8998 21.1878 20.2541 20.8335 20.2541 20.3969C20.2541 19.9603 19.8998 19.606 19.4632 19.606H18.035V19.607Z" fill="url(#paint0_linear)"/>
<defs>
<linearGradient id="paint0_linear" x1="33.971" y1="3.09688" x2="3.13849" y2="33.9797" gradientUnits="userSpaceOnUse">
<stop stop-color="#FF271D"/>
<stop offset="1" stop-color="#FF2E8E"/>
</linearGradient>
</defs>
</svg>
