<svg width="141" height="141" viewBox="0 0 141 141" fill="none" xmlns="http://www.w3.org/2000/svg">
<g clip-path="url(#clip0)">
<path d="M51.7207 23.4156C54.5356 22.4584 58.2097 21.4576 59.9279 21.3707C64.0993 20.9966 70.8168 24.4744 75.903 29.7574C79.9784 33.9277 80.3837 34.1167 82.342 32.5626C87.809 28.3517 94.5801 30.1274 100.299 37.3339C103.718 41.6421 104.616 43.7384 106.55 52.2887C109.022 62.9652 109.001 72.4293 106.387 77.8227C104.986 80.722 105.108 81.519 108.022 87.1215C112.131 94.7121 112.369 97.5866 109.496 101.527C106.355 105.934 85.3163 122.375 80.9373 123.935C76.3395 125.541 72.7078 123.7 66.1621 116.256C62.7108 112.229 58.9436 109.09 55.1417 106.873C42.5981 99.5932 19.3205 73.6394 17.0916 64.5568C14.5867 54.1614 17.4328 49.2218 33.8687 35.6678C44.6486 26.73 47.3579 24.8353 51.7207 23.4156ZM28.7981 46.3303C27.0263 48.1193 24.4985 51.5297 23.3024 53.8832C21.477 57.3744 21.2047 59.1225 22.2352 63.1558C23.4821 67.7835 24.4606 69.1773 33.601 80.0517C47.8413 96.7089 59.2235 105.421 66.0668 104.714C69.7383 104.354 79.8976 98.3339 88.7491 91.3095C98.2272 83.7878 101.794 78.1482 102.908 69.0945C103.894 60.5243 101.056 47.457 96.9096 41.428C93.1364 35.869 88.4267 34.117 84.8235 36.9765C82.7086 38.6548 82.7707 38.7332 87.5497 46.6856C93.245 55.9535 95.116 60.7242 93.5494 61.9674C91.6694 63.4593 90.083 61.782 85.866 53.8943C76.7183 36.8978 70.8427 29.8157 64.0418 27.6806C58.8324 25.9423 53.0323 27.4813 45.0935 32.7601C38.6107 37.1388 35.7908 39.3767 28.7981 46.3303ZM71.5407 114.668C76.3323 119.419 76.7997 119.686 80.2711 118.591C83.7425 117.496 103.09 102.142 104.945 99.01C106.455 96.4078 106.073 94.1573 103.516 89.1653L102.121 86.4424L92.7512 94.2613C87.0007 99.0802 80.7367 103.413 76.6362 105.646C72.9273 107.568 69.3589 109.506 68.6701 109.925C67.7463 110.53 68.3517 111.454 71.5407 114.668Z" fill="white"/>
</g>
<defs>
<clipPath id="clip0">
<rect width="100" height="100" fill="white" transform="matrix(-0.783312 0.621628 0.621628 0.783312 78.3311 0)"/>
</clipPath>
</defs>
</svg>
