<svg width="100" height="100" viewBox="0 0 100 100" fill="none" xmlns="http://www.w3.org/2000/svg">
<path d="M35.4 98.2C32.6 97.2 29.1 95.7 27.7 94.7C24.2 92.4 21.1 85.5 20.4 78.2001C19.8 72.4001 19.6 72.0001 17.1 72.0001C10.2 71.9001 6 66.3001 6 57.1001C6 51.6001 6.6 49.4001 10.4 41.5001C15.1 31.6001 21 24.2001 26.4 21.6001C29.3 20.2001 29.7 19.5001 30.9 13.3001C32.4 4.80005 34 2.40005 38.7 1.10005C43.9 -0.399946 70.6 -0.199946 75 1.30005C79.6 2.90005 81.3 6.60005 81.8 16.5001C82 21.8001 83 26.6001 84.6 30.7001C89.9 44.2001 92 79.0001 88.1 87.5C83.6 97.2 78.3 99.3 57 99.7C43 100 39.7 99.8 35.4 98.2ZM67.6 94.5C70.1 94.2 74.2 93.1 76.6 92C80.2 90.4 81.5 89.2 83.2 85.4C85.1 81.0001 85.2 79.3001 84.8 65.1001C84 43.2001 80.5 29.3001 74.7 25.6001C71.6 23.6001 59.9 22.0001 48.6 22.0001C36.5 22.0001 30.2 24.2001 23.7 30.6001C17.6 36.7001 11.7 48.7001 11.2 56.0001C10.7 62.7001 13.3 67.0001 17.9 67.0001C20.6 67.0001 20.6 66.9001 21.8 57.7001C23.1 46.9001 24.6 42.0001 26.6 42.0001C29 42.0001 29.2 44.3001 27.6 53.1001C24.2 72.1001 24.4 81.3001 28.4 87.2C31.4 91.8 36.9 94.2 46.4 95C54.2 95.6 57.8 95.6 67.6 94.5ZM76.6 14.4001C75.8 7.70005 75.6 7.20005 72.2 5.90005C68.8 4.60005 44.1 4.60005 40.7 5.90005C37.9 7.00005 36.8 9.00005 35.7 14.5001L35.1 17.5001L47.3 17.2001C54.8 17.0001 62.4 17.5001 67 18.3001C71.1 19.1001 75.1 19.8001 75.9 19.9001C77 20.0001 77.1 18.9001 76.6 14.4001Z" fill="#FC2C38"/>
</svg>


