<svg width="37" height="43" viewBox="0 0 37 43" fill="none" xmlns="http://www.w3.org/2000/svg">
<path d="M18.6928 25.041H15.7868C15.6213 25.0434 15.4614 24.9806 15.3418 24.866C15.2865 24.813 15.2441 24.7481 15.2177 24.6761C15.1914 24.6042 15.1818 24.5272 15.1898 24.451L15.4468 21.825C15.4718 21.545 15.7318 21.33 16.0428 21.331H18.9498C19.1198 21.331 19.2798 21.394 19.3948 21.507C19.5078 21.619 19.5638 21.77 19.5468 21.921L19.2898 24.548C19.2648 24.828 19.0048 25.042 18.6928 25.041ZM19.1588 19.898H16.1988C16.1224 19.8995 16.0464 19.8859 15.9753 19.8579C15.9041 19.83 15.8391 19.7884 15.784 19.7354C15.729 19.6823 15.6849 19.619 15.6543 19.5489C15.6237 19.4788 15.6073 19.4034 15.6058 19.327L16.4118 10.452C16.4319 10.3103 16.5032 10.1808 16.6123 10.0881C16.7214 9.99536 16.8607 9.94589 17.0038 9.94901H19.9638C20.2908 9.94901 20.5568 10.205 20.5568 10.52L19.7268 19.4C19.7063 19.5368 19.638 19.6618 19.534 19.753C19.43 19.8441 19.2971 19.8955 19.1588 19.898ZM36.5668 9.54901L28.8988 0.630013C28.7289 0.432309 28.5182 0.273661 28.2812 0.164927C28.0442 0.0561922 27.7866 -6.24213e-05 27.5258 1.25456e-05H4.56083C4.11386 -0.00165395 3.68221 0.16276 3.34961 0.461359C3.01702 0.759958 2.80719 1.17145 2.76083 1.61601L0.00683138 32.896C-0.0371686 33.399 0.132831 33.896 0.474831 34.269C0.644574 34.4528 0.850578 34.5994 1.07984 34.6996C1.3091 34.7998 1.55664 34.8513 1.80683 34.851H6.31683L5.63083 43L14.4998 34.857H24.5738C25.0438 34.857 25.4958 34.677 25.8338 34.35L35.2958 25.195C35.6078 24.893 35.7998 24.49 35.8368 24.058L36.9938 10.874C37.0145 10.6358 36.9874 10.3959 36.9141 10.1684C36.8408 9.94087 36.7227 9.73028 36.5668 9.54901ZM29.5538 21.543C29.5178 21.9766 29.3256 22.3825 29.0128 22.685L23.5348 27.882C23.1976 28.2015 22.7504 28.3791 22.2858 28.378H8.88583C8.63661 28.375 8.39063 28.3211 8.16296 28.2196C7.9353 28.1182 7.73074 27.9713 7.56183 27.788C7.39326 27.6052 7.26403 27.3897 7.18215 27.1549C7.10027 26.9201 7.06749 26.671 7.08583 26.423L8.70783 8.11001C8.75419 7.66545 8.96402 7.25396 9.29661 6.95536C9.62921 6.65676 10.0609 6.49235 10.5078 6.49401H24.1358C24.6578 6.49401 25.1558 6.72001 25.4978 7.11401L29.8238 12.09C30.1498 12.448 30.3178 12.922 30.2888 13.404L29.5538 21.542V21.543Z" fill="url(#paint0_linear)"/>
<defs>
<linearGradient id="paint0_linear" x1="31.9418" y1="4.92909" x2="-1.79131" y2="37.954" gradientUnits="userSpaceOnUse">
<stop stop-color="#F59C07"/>
<stop offset="1" stop-color="#F57507"/>
</linearGradient>
</defs>
</svg>
