<?xml version="1.0" encoding="utf-8"?>
<!-- Generator: Adobe Illustrator 23.0.1, SVG Export Plug-In . SVG Version: 6.00 Build 0)  -->
<svg version="1.1" id="Layer_1" xmlns="http://www.w3.org/2000/svg" xmlns:xlink="http://www.w3.org/1999/xlink" x="0px" y="0px"
	 viewBox="0 0 1613.4 693.3" style="enable-background:new 0 0 1613.4 693.3;" xml:space="preserve">
<style type="text/css">
	.st0{fill:#FFFFFF;}
	.st1{fill:#FFFFFF;}
</style>
<g>
	<g>
		<rect x="1067.1" y="185.8" class="st0" width="30.2" height="205.4"/>
		<path class="st0" d="M1148.4,354.1c-11.3,0-20.4,9.1-20.4,20.4c0,11.3,9.1,20.4,20.4,20.4c11.3,0,20.4-9.1,20.4-20.4
			C1168.8,363.2,1159.7,354.1,1148.4,354.1z"/>
		<path class="st0" d="M1227.8,319.7c0-24.5,14.7-45.5,43.2-45.5h18v-28.6h-18c-22.3,0-32.5,7.1-42.9,18.9l-0.2,0.3v-19.2H1198
			v145.5h29.8C1227.8,391,1227.8,329.6,1227.8,319.7z"/>
		<rect x="1004.1" y="245.6" class="st0" width="30.2" height="145.5"/>
		<path class="st0" d="M1019.2,221.5c11.3,0,20.4-9.1,20.4-20.4s-9.2-20.4-20.4-20.4c-11.3,0-20.4,9.1-20.4,20.4
			C998.8,212.4,1008,221.5,1019.2,221.5z"/>
		<path class="st0" d="M941.7,260.3c-11.6-11.8-29.4-18.4-47.1-18.4c-42.2,0-76.5,34.3-76.5,76.5s34.3,76.5,76.5,76.5
			c17.7,0,36.4-7.6,47.1-19.6v15.9h29.7V245.6h-29.7V260.3z M895.6,364.5c-26,0-45.8-20-45.8-46.1s19.8-45.9,45.8-45.9l0,0
			c26,0,46.5,18.6,46.5,45.9S921.6,364.5,895.6,364.5z"/>
		<path class="st0" d="M1372.6,394.9c13.5,0,30.7-7.3,41.5-19.7c0.1,5.5,0,10.5,0,15.9h29.7v-63.5v-82H1414v79.9
			c0,20.7-15.8,40-39.5,40c-20.7,0-35.4-15-35.4-36.5v-83.3h-29.8v85.8C1309.4,369.9,1330.1,394.9,1372.6,394.9z"/>
		<path class="st0" d="M730.9,241.9c-19.8,0-39.2,9-51,23.2c-10.8-14.3-26.5-23.2-47.6-23.2c-17.2,0-29.5,7.7-36.1,13.9v-10.2h-29.7
			v145.5h29.7v-85.1c0-19,15.5-34.4,34.4-34.4s34.4,15.5,34.4,34.4v85.1h29.7v-85.1c0-19,15.5-34.4,34.4-34.4s34.4,15.5,34.4,34.4
			v85.1h29.7v-85.1C793.4,267,768.1,241.9,730.9,241.9z"/>
		<path class="st0" d="M1123.1,458.4L1123.1,458.4l-0.2,0.2v-11.3h-8.7h-8.8h-1.5v85.4h1.5l0,0h17.5c0-0.1,0-34.2,0-40
			c0-14.4,8.6-26.7,25.3-26.7h10.5v-18.7h-10.5C1135.2,447.3,1129.2,451.5,1123.1,458.4z"/>
		<path class="st0" d="M1327.4,494.1L1327.4,494.1c0,13.7-11,21.9-21.7,21.9c-11.3,0-19.3-8.2-19.3-19.9v-48.7h-19.1v50.1
			c0,23.7,13.6,37.4,37.2,37.4c7.7,0,16.8-3.9,22.8-9.8c0,1.5,0,3,0,4.5l0,3.2h19v-85.4h-19.1L1327.4,494.1L1327.4,494.1z"/>
		<path class="st0" d="M1208.2,445.2c-24.7,0-44.8,20.1-44.8,44.8c0,24.7,20.1,44.8,44.8,44.8c24.7,0,44.8-20.1,44.8-44.8
			S1233,445.2,1208.2,445.2z M1208.2,515.8c-14.2,0-25.8-11.6-25.8-25.8s11.6-25.8,25.8-25.8c14.2,0,25.8,11.6,25.8,25.8
			S1222.5,515.8,1208.2,515.8z"/>
		<path class="st0" d="M1410.4,445.2L1410.4,445.2c-9.8,0-19.3,3.4-26,9.2v-7.1h-19v114.8l19,0v-37c6.4,6,16.3,9.8,26,9.8
			c24.7,0,44.8-20.1,44.8-44.8C1455.2,465.3,1435.1,445.2,1410.4,445.2z M1409.8,515.4c-14.9,0-25.7-10.7-25.7-25.4
			c0-14.7,10.8-25.3,25.7-25.3c14.4,0,25.3,10.9,25.3,25.3C1435.1,504.5,1424.2,515.4,1409.8,515.4z"/>
		<path class="st0" d="M1066,454.4c-6.7-5.8-16.2-9.2-26-9.2c-24.7,0-44.8,20.1-44.8,44.8c0,24.7,20.1,44.8,44.8,44.8
			c9.7,0,19.6-3.8,26-9.8v1.7c-0.3,17.5-8.8,26.4-25.4,26.4h-0.2c-9.4,0-17.7-3.6-25.4-11.1l-0.7-0.7l-13.8,13.2l0.6,0.7
			c7.1,8.3,21.5,17.8,38.8,17.8c0.3,0,0.6,0,0.9,0c16.2-0.3,43.4-6.6,44.2-45.6v-80.2h-19V454.4z M1040.6,515.4
			c-14.4,0-25.3-10.9-25.3-25.4c0-14.4,10.9-25.3,25.3-25.3c14.9,0,25.7,10.6,25.7,25.3C1066.2,504.7,1055.5,515.4,1040.6,515.4z"/>
	</g>
	<path class="st1" d="M366.5,315.8c0,26.5-21.5,48-48,48s-48-21.5-48-48s21.5-48,48-48C345,267.8,366.5,289.4,366.5,315.8
		 M318.5,156.3c-88,0-159.6,71.6-159.6,159.6s71.6,159.5,159.6,159.5c32.2,0,63.3-9.6,89.9-27.8l0.5-0.3l-21.5-25l-0.4,0.2
		c-20.5,13.1-44.1,20.1-68.5,20.1c-69.9,0-126.8-56.9-126.8-126.8S248.6,189,318.5,189s126.8,56.9,126.8,126.8c0,9.1-1,18.2-3,27.3
		c-4,16.5-15.5,21.5-24.2,20.8c-8.7-0.7-18.9-6.9-19-22.1v-26c0-44.5-36.2-80.7-80.7-80.7s-80.7,36.2-80.7,80.7s36.2,80.7,80.7,80.7
		c21.6,0,41.9-8.5,57.2-23.8c8.9,13.8,23.4,22.5,39.9,23.8c1.4,0.1,2.9,0.2,4.3,0.2c11.6,0,23.1-3.9,32.4-10.9
		c9.6-7.3,16.7-17.8,20.6-30.4c0.6-2,1.8-6.7,1.8-6.7l0-0.2c2.3-10.1,3.4-20.2,3.4-32.7C478.1,227.9,406.5,156.3,318.5,156.3"/>
</g>
</svg>
