<svg width="86" height="35" viewBox="0 0 86 35" fill="none" xmlns="http://www.w3.org/2000/svg">
<path fill-rule="evenodd" clip-rule="evenodd" d="M86 3.18182C86 1.42545 84.6599 0 83.0087 0H2.9913C1.3401 0 0 1.42545 0 3.18182V31.8182C0 33.5745 1.3401 35 2.9913 35H83.0087C84.6599 35 86 33.5745 86 31.8182V3.18182Z" fill="#005FF9"/>
<path fill-rule="evenodd" clip-rule="evenodd" d="M71.5517 8.42326H73.5365V22.7567H71.5517V8.42326ZM69.407 22.7567H67.4222V12.5995H69.407V22.7567ZM68.4146 8.06689C68.7623 8.07925 69.0918 8.23485 69.3337 8.50083C69.5755 8.7668 69.7107 9.12234 69.7107 9.49237C69.7107 9.86239 69.5755 10.2179 69.3337 10.4839C69.0918 10.7499 68.7623 10.9055 68.4146 10.9178C68.0669 10.9055 67.7374 10.7499 67.4955 10.4839C67.2537 10.2179 67.1185 9.86239 67.1185 9.49237C67.1185 9.12234 67.2537 8.7668 67.4955 8.50083C67.7374 8.23485 68.0669 8.07925 68.4146 8.06689ZM65.2775 22.7567H63.3271V21.6455C62.6279 22.4879 61.3962 23.0177 60.2379 23.0177C58.9067 23.0168 57.6304 22.4539 56.6892 21.4526C55.748 20.4514 55.219 19.0936 55.2184 17.6777C55.2192 16.2619 55.7483 14.9044 56.6895 13.9033C57.6306 12.9022 58.9069 12.3394 60.2379 12.3385C61.3962 12.3385 62.5628 12.8031 63.3271 13.6232V12.5995H65.2775V22.7567ZM60.3014 14.4728C62.0095 14.4728 63.3533 15.7726 63.3533 17.6777C63.3533 19.5828 62.0095 20.8946 60.3014 20.8946C58.5934 20.8946 57.2952 19.4953 57.2952 17.6777C57.2952 15.8609 58.5934 14.4728 60.3014 14.4728ZM40.6523 22.7567H38.7012V12.5995H40.6523V13.309C41.2992 12.6787 42.1463 12.332 43.0236 12.3385C44.4086 12.3385 45.4406 12.9582 46.1473 13.9549C46.9205 12.9678 48.1956 12.3385 49.4946 12.3385C51.9325 12.3385 53.5942 14.0894 53.5942 16.8178V22.7567H51.6431V16.8178C51.6423 16.1805 51.4039 15.5696 50.9803 15.1189C50.5566 14.6683 49.9823 14.4147 49.3831 14.4139C48.784 14.4145 48.2095 14.668 47.7858 15.1187C47.3621 15.5694 47.1238 16.1804 47.1232 16.8178V22.7567H45.1721V16.8178C45.1721 15.4926 44.1581 14.4139 42.9122 14.4139C41.6663 14.4139 40.6523 15.4926 40.6523 16.8178V22.7567Z" fill="white"/>
<path d="M25.5835 17.5002C25.5835 19.3472 24.1709 20.8498 22.4344 20.8498C20.698 20.8498 19.2853 19.3472 19.2853 17.5002C19.2853 15.6531 20.698 14.1505 22.4344 14.1505C24.1709 14.1505 25.5835 15.6531 25.5835 17.5002ZM22.4344 6.36377C16.6612 6.36377 11.9648 11.3592 11.9648 17.5002C11.9648 23.6411 16.6612 28.6365 22.4344 28.6365C24.5391 28.6399 26.5953 27.9645 28.3318 26.6996L28.3617 26.6773L26.9513 24.9337L26.9274 24.9496C25.5878 25.8675 24.0278 26.355 22.4344 26.3536C17.845 26.3536 14.1111 22.3819 14.1111 17.5002C14.1111 12.6184 17.845 8.64673 22.4344 8.64673C27.0238 8.64673 30.7577 12.6184 30.7577 17.5002C30.7577 18.1325 30.6912 18.7729 30.5618 19.4029C30.2986 20.5523 29.5418 20.9039 28.9742 20.8578C28.4028 20.8085 27.7343 20.3757 27.7298 19.3162V17.5002C27.7298 14.3939 25.3547 11.8675 22.4344 11.8675C19.5142 11.8675 17.1391 14.3939 17.1391 17.5002C17.1391 20.6064 19.5142 23.1328 22.4344 23.1328C23.1323 23.1347 23.8235 22.9887 24.4677 22.7033C25.1119 22.4178 25.6961 21.9987 26.1863 21.4703C26.4707 21.9447 26.8553 22.3421 27.3094 22.6309C27.7634 22.9196 28.2746 23.0917 28.8022 23.1336C29.6635 23.2043 30.5194 22.9375 31.2087 22.3835C31.8361 21.876 32.305 21.1433 32.5637 20.2628C32.6049 20.1204 32.6811 19.795 32.6811 19.7927L32.6834 19.7807C32.8359 19.0744 32.904 18.3704 32.904 17.5002C32.904 11.3592 28.2076 6.36377 22.4344 6.36377Z" fill="#FF9E00"/>
</svg>
