<svg width="35" height="35" viewBox="0 0 35 35" fill="none" xmlns="http://www.w3.org/2000/svg">
<path d="M0 16.7708C0 8.86667 0 4.91458 2.45 2.45C4.91458 0 8.86667 0 16.7708 0H18.2292C26.1333 0 30.0854 0 32.55 2.45C35 4.91458 35 8.86667 35 16.7708V18.2292C35 26.1333 35 30.0854 32.55 32.55C30.0854 35 26.1333 35 18.2292 35H16.7708C8.86667 35 4.91458 35 2.45 32.55C0 30.0854 0 26.1333 0 18.2292V16.7708Z" fill="#2787F5"/>
<path fill-rule="evenodd" clip-rule="evenodd" d="M9.48081 10.9362H6.92871C6.19954 10.9362 6.05371 11.2862 6.05371 11.6654C6.05371 12.3362 6.92871 15.6904 10.0787 20.1238C12.1933 23.1425 15.1683 24.7905 17.8663 24.7905C19.485 24.7905 19.6892 24.4259 19.6892 23.7988V21.5092C19.6892 20.78 19.835 20.6342 20.36 20.6342C20.7392 20.6342 21.3809 20.8238 22.8975 22.2821C24.633 24.0175 24.91 24.7905 25.8871 24.7905H28.4392C29.1684 24.7905 29.533 24.4259 29.3142 23.7113C29.0955 22.9821 28.2642 21.9613 27.1705 20.7217C26.5871 20.0071 25.683 19.2633 25.4205 18.8842C25.0413 18.3883 25.1288 18.1696 25.4205 17.7466C25.4205 17.7466 28.5267 13.3716 28.8476 11.8695C29.008 11.3299 28.8476 10.9362 28.0746 10.9362H25.5225C25.2839 10.9219 25.047 10.9852 24.8472 11.1166C24.6475 11.248 24.4956 11.4405 24.4142 11.6654C24.4142 11.6654 23.1017 14.8154 21.2788 16.8716C20.6809 17.4696 20.4038 17.6591 20.0829 17.6591C19.9371 17.6591 19.6892 17.4696 19.6892 16.93V11.8695C19.6892 11.2279 19.4996 10.9362 18.96 10.9362H14.9496C14.5412 10.9362 14.2933 11.2279 14.2933 11.5195C14.2933 12.132 15.2267 12.2779 15.3142 13.9987V17.7612C15.3142 18.5925 15.1683 18.7383 14.8475 18.7383C13.9725 18.7383 11.8725 15.5591 10.6183 11.9279C10.385 11.2279 10.1371 10.9362 9.48081 10.9362Z" fill="white"/>
</svg>
