<svg width="113" height="23" viewBox="0 0 113 23" fill="none" xmlns="http://www.w3.org/2000/svg">
<path fill-rule="evenodd" clip-rule="evenodd" d="M58.4335 10.8672H16.0107V11.9771H58.4211L58.4172 12.3212C57.7196 13.1922 57.0462 14.4704 56.3949 16.1648H57.2209C58.8148 14.0049 60.2934 12.5478 61.6586 11.7958V11.2213C60.4004 10.6145 58.925 9.19272 57.232 6.95523H56.417C56.9595 8.3245 57.6365 9.61401 58.4341 10.7973L58.4335 10.868V10.8672Z" fill="#1EB364"/>
<path fill-rule="evenodd" clip-rule="evenodd" d="M69.4834 16.1578C68.5179 14.9595 68.0348 13.3542 68.0348 11.3456C68.0348 9.33703 68.5172 7.734 69.484 6.535C70.4495 5.33523 71.7195 4.73611 73.2926 4.73611C74.0146 4.72853 74.7281 4.91891 75.3769 5.29221C76.0158 5.6632 76.5139 6.1617 76.8731 6.78924V0H78.705V17.7339H76.8731V15.9028C76.5484 16.5249 76.0562 17.0234 75.3977 17.3952C74.7415 17.7687 74.0214 17.9605 73.2926 17.9559C71.7195 17.9559 70.4502 17.356 69.484 16.1585L69.4834 16.1578ZM70.9118 8.04201C71.5676 7.19019 72.4256 6.76543 73.4882 6.76543C74.5926 6.76543 75.4558 7.17636 76.0758 7.999C76.6964 8.82317 77.008 9.93922 77.008 11.3456C77.008 12.7543 76.6964 13.8704 76.0758 14.6922C75.4564 15.5164 74.5926 15.9289 73.4882 15.9289C72.4256 15.9289 71.5676 15.5018 70.9118 14.6492C70.2559 13.7982 69.9293 12.6959 69.9293 11.3464C69.9293 9.99452 70.2559 8.89384 70.9118 8.04201ZM81.1322 17.78V5.11709H82.8911V7.00892C83.2223 6.29535 83.6558 5.74616 84.1904 5.36134C84.7243 4.97499 85.3437 4.78219 86.0484 4.78219C86.3437 4.78219 86.7134 4.82751 87.1554 4.91738L87.1345 7.18174C86.7768 7.09883 86.413 7.05715 86.0484 7.05731C84.9304 7.05731 84.1259 7.48744 83.6363 8.34618C83.1812 9.13732 82.953 10.3141 82.953 11.8741V17.78H81.1322ZM91.3193 5.21694H93.3175L96.7115 15.0248L100.096 5.21694H102.092L97.4254 17.8798H95.9878L91.32 5.21694H91.3193ZM88.3817 17.9236V5.26072H90.2026V17.9236H88.3817ZM88.2722 3.13308C87.9938 2.8028 87.8549 2.39494 87.8549 1.90873C87.8549 1.42252 87.9938 1.01466 88.2722 0.683609C88.4045 0.523634 88.5632 0.397283 88.7386 0.312342C88.914 0.227401 89.1022 0.18567 89.2918 0.189721C89.6921 0.189721 90.0318 0.353326 90.3114 0.683609C90.5918 1.01389 90.7313 1.42252 90.7313 1.90873C90.7313 2.39494 90.5918 2.80357 90.3114 3.13308C90.0311 3.46336 89.6921 3.62774 89.2918 3.62774C89.1022 3.63169 88.9139 3.58984 88.7385 3.50476C88.5632 3.41969 88.4044 3.2932 88.2722 3.13308ZM109.385 15.4972L110.287 17.2761C110.196 17.3399 110.105 17.4082 110.01 17.4643C109.345 17.8645 108.512 18.065 107.511 18.065C105.974 18.065 104.709 17.4474 103.719 16.2154C102.73 14.9833 102.234 13.3857 102.234 11.4224C102.23 10.559 102.355 9.70152 102.601 8.88846C102.833 8.11508 103.184 7.39839 103.636 6.77388C104.081 6.16401 104.637 5.67857 105.308 5.32063C105.976 4.9627 106.712 4.78296 107.511 4.78296C109.009 4.78296 110.221 5.41127 111.15 6.66788C112.076 7.92603 112.547 9.51139 112.561 11.4224V12.0784H104.065C104.106 13.282 104.455 14.2429 105.111 14.9611C105.766 15.6777 106.567 16.0364 107.511 16.0364C108.236 16.0364 108.86 15.8574 109.385 15.4972ZM105.313 7.77548C104.716 8.41838 104.342 9.27174 104.19 10.3348H110.564C110.461 9.26406 110.14 8.4084 109.602 7.76934C109.063 7.12951 108.367 6.81151 107.511 6.81151C106.642 6.81151 105.909 7.13258 105.313 7.77548ZM23.2846 12.6867V5.21694H25.1569V12.6867C25.1569 13.8158 25.3323 14.673 25.6798 15.2591C26.0279 15.8444 26.6512 16.1378 27.5482 16.1378C28.6239 16.1378 29.4284 15.647 29.9604 14.6646C30.3724 13.8734 30.5797 12.6906 30.5797 11.1159V5.21694H32.4019V17.8814H30.641V16.2123C29.8971 17.515 28.796 18.1663 27.3403 18.1663C25.8916 18.1663 24.8531 17.6901 24.2266 16.7361C23.5988 15.786 23.2839 14.4357 23.2839 12.6875L23.2846 12.6867ZM11.2954 14.756C10.8004 13.7424 10.5434 12.5918 10.5509 11.4224C10.5509 10.2188 10.8 9.1089 11.2954 8.0904C11.7783 7.08901 12.4765 6.25507 13.3197 5.67242C14.1629 5.08164 15.1271 4.77379 16.108 4.78219C17.1146 4.78219 18.0443 5.07945 18.8964 5.67319C19.7391 6.25572 20.4368 7.0894 20.9193 8.0904C21.4152 9.10335 21.6724 10.2539 21.6645 11.4232C21.6724 12.5927 21.4151 13.7435 20.9193 14.7567C20.437 15.7577 19.7393 16.5912 18.8964 17.1732C18.0534 17.7645 17.0891 18.0726 16.108 18.0642C15.127 18.0729 14.1626 17.7647 13.3197 17.1732C12.4763 16.5911 11.7781 15.7573 11.2954 14.756ZM0 5.21694H2.20485L5.57862 13.6269L8.8885 5.21694H10.8137L3.94356 23H1.97602L4.60528 16.1608L0 5.21694ZM13.4899 8.1964C12.7923 9.0705 12.4435 10.1451 12.4435 11.4224C12.4435 12.7013 12.7923 13.7766 13.4899 14.6507C14.1861 15.5248 15.0591 15.9627 16.108 15.9627C17.157 15.9627 18.0306 15.5248 18.7262 14.6507C19.4225 13.7766 19.7713 12.7013 19.7713 11.4232C19.7713 10.1451 19.4225 9.0705 18.7262 8.1964C18.0306 7.32153 17.157 6.88448 16.108 6.88448C15.0591 6.88448 14.1861 7.3223 13.4899 8.1964Z" fill="#221F20"/>
</svg>
