<svg width="39" height="39" viewBox="0 0 39 39" fill="none" xmlns="http://www.w3.org/2000/svg">
<path d="M22.3384 19.5272L38.3669 3.58642C39.1353 2.82573 39.1353 1.5943 38.3669 0.83555C37.6004 0.0748612 36.3554 0.0748612 35.5889 0.83555L19.5741 16.7628L3.41129 0.598158C2.64478 -0.170293 1.39977 -0.170293 0.63326 0.598158C-0.13325 1.36855 -0.13325 2.6155 0.63326 3.38395L16.7843 19.5369L0.574883 35.6568C-0.191628 36.4175 -0.191628 37.6489 0.574883 38.4076C1.34139 39.1683 2.58641 39.1683 3.35292 38.4076L19.5486 22.3014L35.6471 38.4018C36.4136 39.1703 37.6586 39.1703 38.4251 38.4018C39.1916 37.6314 39.1916 36.3845 38.4251 35.616L22.3384 19.5272Z" fill="#EA4342"/>
</svg>
